<mxfile host="app.diagrams.net" agent="Mozilla/5.0 (Windows NT 10.0; Win64; x64) AppleWebKit/537.36 (KHTML, like Gecko) Chrome/129.0.0.0 Safari/537.36 Edg/129.0.0.0" version="24.7.16" pages="4">
  <diagram name="BuyCheapSeatDiagram" id="eKqp7dl4UsgAUTYUMyM2">
    <mxGraphModel dx="2916" dy="1109" grid="1" gridSize="10" guides="1" tooltips="1" connect="1" arrows="1" fold="1" page="1" pageScale="1" pageWidth="850" pageHeight="1100" math="0" shadow="0">
      <root>
        <mxCell id="0" />
        <mxCell id="1" parent="0" />
        <mxCell id="IWSV0h7KsMsJ5lvwP99l-1" value="" style="group" vertex="1" connectable="0" parent="1">
          <mxGeometry x="-310" y="80" width="90" height="1800" as="geometry" />
        </mxCell>
        <mxCell id="IWSV0h7KsMsJ5lvwP99l-2" value="&lt;div&gt;Event&lt;/div&gt;&lt;div&gt;Endpoints&lt;/div&gt;" style="shape=umlBoundary;whiteSpace=wrap;html=1;" vertex="1" parent="IWSV0h7KsMsJ5lvwP99l-1">
          <mxGeometry x="-10" width="100" height="80" as="geometry" />
        </mxCell>
        <mxCell id="IWSV0h7KsMsJ5lvwP99l-3" value="" style="endArrow=none;dashed=1;html=1;strokeWidth=1;rounded=0;strokeColor=default;entryX=0.501;entryY=1.021;entryDx=0;entryDy=0;entryPerimeter=0;" edge="1" parent="IWSV0h7KsMsJ5lvwP99l-1" target="IWSV0h7KsMsJ5lvwP99l-2">
          <mxGeometry width="50" height="50" relative="1" as="geometry">
            <mxPoint x="40" y="1800" as="sourcePoint" />
            <mxPoint x="42.5" y="219.70656506447838" as="targetPoint" />
          </mxGeometry>
        </mxCell>
        <mxCell id="IWSV0h7KsMsJ5lvwP99l-4" value="" style="shape=umlLifeline;perimeter=lifelinePerimeter;whiteSpace=wrap;html=1;container=1;dropTarget=0;collapsible=0;recursiveResize=0;outlineConnect=0;portConstraint=eastwest;newEdgeStyle={&quot;curved&quot;:0,&quot;rounded&quot;:0};participant=umlActor;" vertex="1" parent="1">
          <mxGeometry x="-530" y="100.01" width="20" height="1779.99" as="geometry" />
        </mxCell>
        <mxCell id="IWSV0h7KsMsJ5lvwP99l-5" value="db" style="shape=umlLifeline;perimeter=lifelinePerimeter;whiteSpace=wrap;html=1;container=0;dropTarget=0;collapsible=0;recursiveResize=0;outlineConnect=0;portConstraint=eastwest;newEdgeStyle={&quot;curved&quot;:0,&quot;rounded&quot;:0};participant=umlBoundary;" vertex="1" parent="1">
          <mxGeometry x="1350" y="98.99000000000001" width="50" height="1781" as="geometry" />
        </mxCell>
        <mxCell id="IWSV0h7KsMsJ5lvwP99l-6" value="" style="html=1;points=[[0,0,0,0,5],[0,1,0,0,-5],[1,0,0,0,5],[1,1,0,0,-5]];perimeter=orthogonalPerimeter;outlineConnect=0;targetShapes=umlLifeline;portConstraint=eastwest;newEdgeStyle={&quot;curved&quot;:0,&quot;rounded&quot;:0};" vertex="1" parent="IWSV0h7KsMsJ5lvwP99l-5">
          <mxGeometry x="20" y="131" width="10" height="39" as="geometry" />
        </mxCell>
        <mxCell id="IWSV0h7KsMsJ5lvwP99l-7" value="" style="html=1;points=[[0,0,0,0,5],[0,1,0,0,-5],[1,0,0,0,5],[1,1,0,0,-5]];perimeter=orthogonalPerimeter;outlineConnect=0;targetShapes=umlLifeline;portConstraint=eastwest;newEdgeStyle={&quot;curved&quot;:0,&quot;rounded&quot;:0};" vertex="1" parent="IWSV0h7KsMsJ5lvwP99l-5">
          <mxGeometry x="20" y="201" width="10" height="49" as="geometry" />
        </mxCell>
        <mxCell id="IWSV0h7KsMsJ5lvwP99l-8" value="" style="html=1;points=[[0,0,0,0,5],[0,1,0,0,-5],[1,0,0,0,5],[1,1,0,0,-5]];perimeter=orthogonalPerimeter;outlineConnect=0;targetShapes=umlLifeline;portConstraint=eastwest;newEdgeStyle={&quot;curved&quot;:0,&quot;rounded&quot;:0};" vertex="1" parent="IWSV0h7KsMsJ5lvwP99l-5">
          <mxGeometry x="20" y="581" width="10" height="39" as="geometry" />
        </mxCell>
        <mxCell id="IWSV0h7KsMsJ5lvwP99l-9" value="" style="html=1;points=[[0,0,0,0,5],[0,1,0,0,-5],[1,0,0,0,5],[1,1,0,0,-5]];perimeter=orthogonalPerimeter;outlineConnect=0;targetShapes=umlLifeline;portConstraint=eastwest;newEdgeStyle={&quot;curved&quot;:0,&quot;rounded&quot;:0};" vertex="1" parent="IWSV0h7KsMsJ5lvwP99l-5">
          <mxGeometry x="20" y="831" width="10" height="29" as="geometry" />
        </mxCell>
        <mxCell id="IWSV0h7KsMsJ5lvwP99l-10" value="" style="html=1;points=[[0,0,0,0,5],[0,1,0,0,-5],[1,0,0,0,5],[1,1,0,0,-5]];perimeter=orthogonalPerimeter;outlineConnect=0;targetShapes=umlLifeline;portConstraint=eastwest;newEdgeStyle={&quot;curved&quot;:0,&quot;rounded&quot;:0};" vertex="1" parent="IWSV0h7KsMsJ5lvwP99l-5">
          <mxGeometry x="20" y="721" width="10" height="40" as="geometry" />
        </mxCell>
        <mxCell id="IWSV0h7KsMsJ5lvwP99l-11" value="" style="html=1;points=[[0,0,0,0,5],[0,1,0,0,-5],[1,0,0,0,5],[1,1,0,0,-5]];perimeter=orthogonalPerimeter;outlineConnect=0;targetShapes=umlLifeline;portConstraint=eastwest;newEdgeStyle={&quot;curved&quot;:0,&quot;rounded&quot;:0};" vertex="1" parent="IWSV0h7KsMsJ5lvwP99l-5">
          <mxGeometry x="20" y="891" width="10" height="29" as="geometry" />
        </mxCell>
        <mxCell id="IWSV0h7KsMsJ5lvwP99l-12" value="" style="html=1;points=[[0,0,0,0,5],[0,1,0,0,-5],[1,0,0,0,5],[1,1,0,0,-5]];perimeter=orthogonalPerimeter;outlineConnect=0;targetShapes=umlLifeline;portConstraint=eastwest;newEdgeStyle={&quot;curved&quot;:0,&quot;rounded&quot;:0};" vertex="1" parent="IWSV0h7KsMsJ5lvwP99l-5">
          <mxGeometry x="20" y="1161" width="10" height="39" as="geometry" />
        </mxCell>
        <mxCell id="IWSV0h7KsMsJ5lvwP99l-13" value="" style="html=1;points=[[0,0,0,0,5],[0,1,0,0,-5],[1,0,0,0,5],[1,1,0,0,-5]];perimeter=orthogonalPerimeter;outlineConnect=0;targetShapes=umlLifeline;portConstraint=eastwest;newEdgeStyle={&quot;curved&quot;:0,&quot;rounded&quot;:0};" vertex="1" parent="IWSV0h7KsMsJ5lvwP99l-5">
          <mxGeometry x="20" y="1241" width="10" height="39" as="geometry" />
        </mxCell>
        <mxCell id="IWSV0h7KsMsJ5lvwP99l-14" value="" style="html=1;points=[[0,0,0,0,5],[0,1,0,0,-5],[1,0,0,0,5],[1,1,0,0,-5]];perimeter=orthogonalPerimeter;outlineConnect=0;targetShapes=umlLifeline;portConstraint=eastwest;newEdgeStyle={&quot;curved&quot;:0,&quot;rounded&quot;:0};" vertex="1" parent="IWSV0h7KsMsJ5lvwP99l-5">
          <mxGeometry x="20" y="1091" width="10" height="39" as="geometry" />
        </mxCell>
        <mxCell id="IWSV0h7KsMsJ5lvwP99l-15" value="" style="html=1;points=[[0,0,0,0,5],[0,1,0,0,-5],[1,0,0,0,5],[1,1,0,0,-5]];perimeter=orthogonalPerimeter;outlineConnect=0;targetShapes=umlLifeline;portConstraint=eastwest;newEdgeStyle={&quot;curved&quot;:0,&quot;rounded&quot;:0};" vertex="1" parent="IWSV0h7KsMsJ5lvwP99l-5">
          <mxGeometry x="20" y="1431.01" width="10" height="38.99" as="geometry" />
        </mxCell>
        <mxCell id="IWSV0h7KsMsJ5lvwP99l-16" value="" style="html=1;points=[[0,0,0,0,5],[0,1,0,0,-5],[1,0,0,0,5],[1,1,0,0,-5]];perimeter=orthogonalPerimeter;outlineConnect=0;targetShapes=umlLifeline;portConstraint=eastwest;newEdgeStyle={&quot;curved&quot;:0,&quot;rounded&quot;:0};" vertex="1" parent="IWSV0h7KsMsJ5lvwP99l-5">
          <mxGeometry x="20" y="1571.01" width="10" height="38.99" as="geometry" />
        </mxCell>
        <mxCell id="IWSV0h7KsMsJ5lvwP99l-17" value="" style="html=1;points=[[0,0,0,0,5],[0,1,0,0,-5],[1,0,0,0,5],[1,1,0,0,-5]];perimeter=orthogonalPerimeter;outlineConnect=0;targetShapes=umlLifeline;portConstraint=eastwest;newEdgeStyle={&quot;curved&quot;:0,&quot;rounded&quot;:0};" vertex="1" parent="1">
          <mxGeometry x="-275" y="230" width="10" height="310" as="geometry" />
        </mxCell>
        <mxCell id="IWSV0h7KsMsJ5lvwP99l-18" value="Send(ListSectionsWithPriceRange)&lt;div&gt;&lt;div style=&quot;font-size: 10px;&quot;&gt;return: SectionWithPriceRange[]&lt;/div&gt;&lt;/div&gt;" style="endArrow=block;endFill=1;html=1;edgeStyle=orthogonalEdgeStyle;align=left;verticalAlign=top;rounded=0;fontSize=10;" edge="1" parent="1" target="IWSV0h7KsMsJ5lvwP99l-123">
          <mxGeometry x="-1" relative="1" as="geometry">
            <mxPoint x="-265" y="230" as="sourcePoint" />
            <mxPoint x="-10" y="230" as="targetPoint" />
            <Array as="points">
              <mxPoint x="-265" y="231" />
            </Array>
          </mxGeometry>
        </mxCell>
        <mxCell id="IWSV0h7KsMsJ5lvwP99l-19" value="" style="html=1;verticalAlign=bottom;endArrow=open;dashed=1;endSize=8;curved=0;rounded=0;exitX=0;exitY=1;exitDx=0;exitDy=-5;exitPerimeter=0;" edge="1" parent="1" source="IWSV0h7KsMsJ5lvwP99l-6" target="IWSV0h7KsMsJ5lvwP99l-114">
          <mxGeometry relative="1" as="geometry">
            <mxPoint x="590" y="310" as="sourcePoint" />
            <mxPoint x="245" y="359.79999999999995" as="targetPoint" />
          </mxGeometry>
        </mxCell>
        <mxCell id="IWSV0h7KsMsJ5lvwP99l-20" value="&amp;lt;section[]&amp;gt;" style="edgeLabel;html=1;align=center;verticalAlign=middle;resizable=0;points=[];fontSize=10;" vertex="1" connectable="0" parent="IWSV0h7KsMsJ5lvwP99l-19">
          <mxGeometry x="0.0731" relative="1" as="geometry">
            <mxPoint as="offset" />
          </mxGeometry>
        </mxCell>
        <mxCell id="IWSV0h7KsMsJ5lvwP99l-21" value="" style="endArrow=block;endFill=1;html=1;edgeStyle=orthogonalEdgeStyle;align=left;verticalAlign=top;rounded=0;fontSize=10;" edge="1" parent="1" source="IWSV0h7KsMsJ5lvwP99l-114" target="IWSV0h7KsMsJ5lvwP99l-6">
          <mxGeometry x="-1" relative="1" as="geometry">
            <mxPoint x="245" y="230" as="sourcePoint" />
            <mxPoint x="590" y="231.02857142857135" as="targetPoint" />
            <Array as="points">
              <mxPoint x="390" y="230" />
              <mxPoint x="390" y="230" />
            </Array>
          </mxGeometry>
        </mxCell>
        <mxCell id="IWSV0h7KsMsJ5lvwP99l-22" value="" style="html=1;verticalAlign=bottom;endArrow=open;dashed=1;endSize=8;curved=0;rounded=0;exitX=0;exitY=1;exitDx=0;exitDy=-5;exitPerimeter=0;" edge="1" parent="1" source="IWSV0h7KsMsJ5lvwP99l-123" target="IWSV0h7KsMsJ5lvwP99l-17">
          <mxGeometry relative="1" as="geometry">
            <mxPoint x="-12.175982905982892" y="350" as="sourcePoint" />
            <mxPoint x="-264.9964957264957" y="350.53999999999996" as="targetPoint" />
          </mxGeometry>
        </mxCell>
        <mxCell id="IWSV0h7KsMsJ5lvwP99l-23" value="&lt;div&gt;events/{event_id}/sections?withPriceRange=true&lt;/div&gt;&lt;div&gt;return SectionWithPriceRangeResource[]&lt;/div&gt;" style="endArrow=block;endFill=1;html=1;edgeStyle=orthogonalEdgeStyle;align=left;verticalAlign=top;rounded=0;fontSize=10;" edge="1" parent="1" target="IWSV0h7KsMsJ5lvwP99l-17">
          <mxGeometry x="-1" relative="1" as="geometry">
            <mxPoint x="-520" y="231" as="sourcePoint" />
            <mxPoint x="-325" y="229.73000000000002" as="targetPoint" />
            <Array as="points">
              <mxPoint x="-400" y="231" />
              <mxPoint x="-400" y="231" />
            </Array>
          </mxGeometry>
        </mxCell>
        <mxCell id="IWSV0h7KsMsJ5lvwP99l-24" value="" style="html=1;verticalAlign=bottom;endArrow=open;dashed=1;endSize=8;curved=0;rounded=0;exitX=0;exitY=1;exitDx=0;exitDy=-5;exitPerimeter=0;entryX=1;entryY=1;entryDx=0;entryDy=-5;entryPerimeter=0;" edge="1" parent="1" source="IWSV0h7KsMsJ5lvwP99l-114" target="IWSV0h7KsMsJ5lvwP99l-123">
          <mxGeometry relative="1" as="geometry">
            <mxPoint x="235" y="340" as="sourcePoint" />
            <mxPoint x="5" y="340" as="targetPoint" />
          </mxGeometry>
        </mxCell>
        <mxCell id="IWSV0h7KsMsJ5lvwP99l-25" value="" style="html=1;verticalAlign=bottom;endArrow=open;dashed=1;endSize=8;curved=0;rounded=0;exitX=0;exitY=1;exitDx=0;exitDy=-5;exitPerimeter=0;" edge="1" parent="1" source="IWSV0h7KsMsJ5lvwP99l-17" target="IWSV0h7KsMsJ5lvwP99l-4">
          <mxGeometry relative="1" as="geometry">
            <mxPoint x="-290" y="628" as="sourcePoint" />
            <mxPoint x="-535" y="628" as="targetPoint" />
            <Array as="points" />
          </mxGeometry>
        </mxCell>
        <mxCell id="IWSV0h7KsMsJ5lvwP99l-26" value="" style="endArrow=block;endFill=1;html=1;edgeStyle=orthogonalEdgeStyle;align=left;verticalAlign=top;rounded=0;fontSize=10;" edge="1" parent="1" source="IWSV0h7KsMsJ5lvwP99l-114" target="IWSV0h7KsMsJ5lvwP99l-7">
          <mxGeometry x="-1" relative="1" as="geometry">
            <mxPoint x="245" y="289.49" as="sourcePoint" />
            <mxPoint x="590" y="290.51857142857136" as="targetPoint" />
            <Array as="points">
              <mxPoint x="970" y="300" />
              <mxPoint x="970" y="300" />
            </Array>
          </mxGeometry>
        </mxCell>
        <mxCell id="IWSV0h7KsMsJ5lvwP99l-27" value="" style="html=1;verticalAlign=bottom;endArrow=open;dashed=1;endSize=8;curved=0;rounded=0;exitX=0;exitY=1;exitDx=0;exitDy=-5;exitPerimeter=0;" edge="1" parent="1" source="IWSV0h7KsMsJ5lvwP99l-7" target="IWSV0h7KsMsJ5lvwP99l-114">
          <mxGeometry relative="1" as="geometry">
            <mxPoint x="590" y="340" as="sourcePoint" />
            <mxPoint x="245" y="340" as="targetPoint" />
          </mxGeometry>
        </mxCell>
        <mxCell id="IWSV0h7KsMsJ5lvwP99l-28" value="&amp;lt;(sectionId, minPrice, maxPrice)[]&amp;gt;" style="edgeLabel;html=1;align=center;verticalAlign=middle;resizable=0;points=[];fontSize=10;" vertex="1" connectable="0" parent="IWSV0h7KsMsJ5lvwP99l-27">
          <mxGeometry x="0.0731" relative="1" as="geometry">
            <mxPoint as="offset" />
          </mxGeometry>
        </mxCell>
        <mxCell id="IWSV0h7KsMsJ5lvwP99l-29" value="" style="html=1;points=[[0,0,0,0,5],[0,1,0,0,-5],[1,0,0,0,5],[1,1,0,0,-5]];perimeter=orthogonalPerimeter;outlineConnect=0;targetShapes=umlLifeline;portConstraint=eastwest;newEdgeStyle={&quot;curved&quot;:0,&quot;rounded&quot;:0};" vertex="1" parent="1">
          <mxGeometry x="-269" y="470" width="10" height="40" as="geometry" />
        </mxCell>
        <mxCell id="IWSV0h7KsMsJ5lvwP99l-30" value="GenerateResource()" style="html=1;align=left;spacingLeft=2;endArrow=block;rounded=0;edgeStyle=orthogonalEdgeStyle;curved=0;rounded=0;fontSize=8;" edge="1" parent="1" source="IWSV0h7KsMsJ5lvwP99l-17" target="IWSV0h7KsMsJ5lvwP99l-29">
          <mxGeometry x="-0.0005" relative="1" as="geometry">
            <mxPoint x="-260" y="450" as="sourcePoint" />
            <Array as="points">
              <mxPoint x="-230" y="460" />
              <mxPoint x="-230" y="490" />
            </Array>
            <mxPoint as="offset" />
          </mxGeometry>
        </mxCell>
        <mxCell id="IWSV0h7KsMsJ5lvwP99l-31" value="" style="endArrow=none;dashed=1;html=1;strokeWidth=1;rounded=0;strokeColor=default;entryX=0.501;entryY=1.021;entryDx=0;entryDy=0;entryPerimeter=0;" edge="1" parent="1" target="IWSV0h7KsMsJ5lvwP99l-32">
          <mxGeometry width="50" height="50" relative="1" as="geometry">
            <mxPoint x="-270" y="760" as="sourcePoint" />
            <mxPoint x="-270" y="151" as="targetPoint" />
          </mxGeometry>
        </mxCell>
        <mxCell id="IWSV0h7KsMsJ5lvwP99l-32" value="" style="html=1;points=[[0,0,0,0,5],[0,1,0,0,-5],[1,0,0,0,5],[1,1,0,0,-5]];perimeter=orthogonalPerimeter;outlineConnect=0;targetShapes=umlLifeline;portConstraint=eastwest;newEdgeStyle={&quot;curved&quot;:0,&quot;rounded&quot;:0};" vertex="1" parent="1">
          <mxGeometry x="-275" y="680" width="10" height="110" as="geometry" />
        </mxCell>
        <mxCell id="IWSV0h7KsMsJ5lvwP99l-33" value="HandleRequest()&lt;div&gt;&lt;div style=&quot;font-size: 10px;&quot;&gt;&lt;div style=&quot;font-size: 10px;&quot;&gt;return: Seat[]&lt;/div&gt;&lt;/div&gt;&lt;/div&gt;" style="endArrow=block;endFill=1;html=1;edgeStyle=orthogonalEdgeStyle;align=left;verticalAlign=top;rounded=0;fontSize=10;" edge="1" parent="1" source="IWSV0h7KsMsJ5lvwP99l-121" target="IWSV0h7KsMsJ5lvwP99l-99">
          <mxGeometry x="-1" relative="1" as="geometry">
            <mxPoint x="5" y="680.005" as="sourcePoint" />
            <mxPoint x="534.9999999999998" y="680.005" as="targetPoint" />
            <Array as="points">
              <mxPoint x="380" y="680" />
              <mxPoint x="380" y="680" />
            </Array>
          </mxGeometry>
        </mxCell>
        <mxCell id="IWSV0h7KsMsJ5lvwP99l-34" value="" style="html=1;points=[[0,0,0,0,5],[0,1,0,0,-5],[1,0,0,0,5],[1,1,0,0,-5]];perimeter=orthogonalPerimeter;outlineConnect=0;targetShapes=umlLifeline;portConstraint=eastwest;newEdgeStyle={&quot;curved&quot;:0,&quot;rounded&quot;:0};" vertex="1" parent="1">
          <mxGeometry x="-269" y="740" width="10" height="40" as="geometry" />
        </mxCell>
        <mxCell id="IWSV0h7KsMsJ5lvwP99l-35" value="GenerateResource()" style="html=1;align=left;spacingLeft=2;endArrow=block;rounded=0;edgeStyle=orthogonalEdgeStyle;curved=0;rounded=0;fontSize=8;" edge="1" parent="1" target="IWSV0h7KsMsJ5lvwP99l-34">
          <mxGeometry x="-0.0005" relative="1" as="geometry">
            <mxPoint x="-265" y="730" as="sourcePoint" />
            <Array as="points">
              <mxPoint x="-230" y="730" />
              <mxPoint x="-230" y="760" />
            </Array>
            <mxPoint as="offset" />
          </mxGeometry>
        </mxCell>
        <mxCell id="IWSV0h7KsMsJ5lvwP99l-36" value="" style="html=1;verticalAlign=bottom;endArrow=open;dashed=1;endSize=8;curved=0;rounded=0;exitX=0;exitY=1;exitDx=0;exitDy=-5;exitPerimeter=0;entryX=1;entryY=1;entryDx=0;entryDy=-5;entryPerimeter=0;" edge="1" parent="1" source="IWSV0h7KsMsJ5lvwP99l-8" target="IWSV0h7KsMsJ5lvwP99l-99">
          <mxGeometry relative="1" as="geometry">
            <mxPoint x="975" y="710" as="sourcePoint" />
            <mxPoint x="370" y="710" as="targetPoint" />
          </mxGeometry>
        </mxCell>
        <mxCell id="IWSV0h7KsMsJ5lvwP99l-37" value="&amp;lt;seat[]&amp;gt;" style="edgeLabel;html=1;align=center;verticalAlign=middle;resizable=0;points=[];fontSize=10;" vertex="1" connectable="0" parent="IWSV0h7KsMsJ5lvwP99l-36">
          <mxGeometry x="0.0731" relative="1" as="geometry">
            <mxPoint as="offset" />
          </mxGeometry>
        </mxCell>
        <mxCell id="IWSV0h7KsMsJ5lvwP99l-38" value="" style="html=1;verticalAlign=bottom;endArrow=open;dashed=1;endSize=8;curved=0;rounded=0;exitX=0;exitY=1;exitDx=0;exitDy=-5;exitPerimeter=0;entryX=1;entryY=1;entryDx=0;entryDy=-5;entryPerimeter=0;" edge="1" parent="1" source="IWSV0h7KsMsJ5lvwP99l-99" target="IWSV0h7KsMsJ5lvwP99l-121">
          <mxGeometry relative="1" as="geometry">
            <mxPoint x="515" y="720" as="sourcePoint" />
            <mxPoint x="210" y="721" as="targetPoint" />
          </mxGeometry>
        </mxCell>
        <mxCell id="IWSV0h7KsMsJ5lvwP99l-39" value="" style="html=1;verticalAlign=bottom;endArrow=open;dashed=1;endSize=8;curved=0;rounded=0;exitX=0;exitY=1;exitDx=0;exitDy=-5;exitPerimeter=0;" edge="1" parent="1" source="IWSV0h7KsMsJ5lvwP99l-121" target="IWSV0h7KsMsJ5lvwP99l-32">
          <mxGeometry relative="1" as="geometry">
            <mxPoint x="-10" y="720" as="sourcePoint" />
            <mxPoint x="-265" y="720.0049999999999" as="targetPoint" />
          </mxGeometry>
        </mxCell>
        <mxCell id="IWSV0h7KsMsJ5lvwP99l-40" value="" style="group" vertex="1" connectable="0" parent="1">
          <mxGeometry x="-190" y="80" width="90" height="1400" as="geometry" />
        </mxCell>
        <mxCell id="IWSV0h7KsMsJ5lvwP99l-41" value="&lt;div&gt;Cart&lt;/div&gt;&lt;div&gt;Endpoints&lt;/div&gt;" style="shape=umlBoundary;whiteSpace=wrap;html=1;" vertex="1" parent="IWSV0h7KsMsJ5lvwP99l-40">
          <mxGeometry x="-10" width="100" height="83.01" as="geometry" />
        </mxCell>
        <mxCell id="IWSV0h7KsMsJ5lvwP99l-42" value="" style="endArrow=none;dashed=1;html=1;strokeWidth=1;rounded=0;strokeColor=default;entryX=0.501;entryY=1.021;entryDx=0;entryDy=0;entryPerimeter=0;" edge="1" parent="IWSV0h7KsMsJ5lvwP99l-40" target="IWSV0h7KsMsJ5lvwP99l-41">
          <mxGeometry width="50" height="50" relative="1" as="geometry">
            <mxPoint x="40" y="1800" as="sourcePoint" />
            <mxPoint x="42.5" y="145.25045134818288" as="targetPoint" />
          </mxGeometry>
        </mxCell>
        <mxCell id="IWSV0h7KsMsJ5lvwP99l-43" value="" style="html=1;points=[[0,0,0,0,5],[0,1,0,0,-5],[1,0,0,0,5],[1,1,0,0,-5]];perimeter=orthogonalPerimeter;outlineConnect=0;targetShapes=umlLifeline;portConstraint=eastwest;newEdgeStyle={&quot;curved&quot;:0,&quot;rounded&quot;:0};" vertex="1" parent="IWSV0h7KsMsJ5lvwP99l-40">
          <mxGeometry x="35" y="740" width="10" height="330" as="geometry" />
        </mxCell>
        <mxCell id="IWSV0h7KsMsJ5lvwP99l-44" value="" style="html=1;points=[[0,0,0,0,5],[0,1,0,0,-5],[1,0,0,0,5],[1,1,0,0,-5]];perimeter=orthogonalPerimeter;outlineConnect=0;targetShapes=umlLifeline;portConstraint=eastwest;newEdgeStyle={&quot;curved&quot;:0,&quot;rounded&quot;:0};" vertex="1" parent="IWSV0h7KsMsJ5lvwP99l-40">
          <mxGeometry x="41" y="1000" width="10" height="40" as="geometry" />
        </mxCell>
        <mxCell id="IWSV0h7KsMsJ5lvwP99l-45" value="GenerateResource()" style="html=1;align=left;spacingLeft=2;endArrow=block;rounded=0;edgeStyle=orthogonalEdgeStyle;curved=0;rounded=0;fontSize=8;" edge="1" parent="IWSV0h7KsMsJ5lvwP99l-40" target="IWSV0h7KsMsJ5lvwP99l-44">
          <mxGeometry x="-0.0005" relative="1" as="geometry">
            <mxPoint x="45" y="990" as="sourcePoint" />
            <Array as="points">
              <mxPoint x="80" y="990" />
              <mxPoint x="80" y="1020" />
            </Array>
            <mxPoint as="offset" />
          </mxGeometry>
        </mxCell>
        <mxCell id="IWSV0h7KsMsJ5lvwP99l-46" value="" style="html=1;points=[[0,0,0,0,5],[0,1,0,0,-5],[1,0,0,0,5],[1,1,0,0,-5]];perimeter=orthogonalPerimeter;outlineConnect=0;targetShapes=umlLifeline;portConstraint=eastwest;newEdgeStyle={&quot;curved&quot;:0,&quot;rounded&quot;:0};" vertex="1" parent="IWSV0h7KsMsJ5lvwP99l-40">
          <mxGeometry x="35" y="1110" width="10" height="290" as="geometry" />
        </mxCell>
        <mxCell id="IWSV0h7KsMsJ5lvwP99l-47" value="" style="html=1;points=[[0,0,0,0,5],[0,1,0,0,-5],[1,0,0,0,5],[1,1,0,0,-5]];perimeter=orthogonalPerimeter;outlineConnect=0;targetShapes=umlLifeline;portConstraint=eastwest;newEdgeStyle={&quot;curved&quot;:0,&quot;rounded&quot;:0};" vertex="1" parent="IWSV0h7KsMsJ5lvwP99l-40">
          <mxGeometry x="41" y="1340" width="10" height="40" as="geometry" />
        </mxCell>
        <mxCell id="IWSV0h7KsMsJ5lvwP99l-48" value="GenerateResource()" style="html=1;align=left;spacingLeft=2;endArrow=block;rounded=0;edgeStyle=orthogonalEdgeStyle;curved=0;rounded=0;fontSize=8;" edge="1" parent="IWSV0h7KsMsJ5lvwP99l-40" target="IWSV0h7KsMsJ5lvwP99l-47">
          <mxGeometry x="-0.0005" relative="1" as="geometry">
            <mxPoint x="45" y="1330" as="sourcePoint" />
            <Array as="points">
              <mxPoint x="80" y="1330" />
              <mxPoint x="80" y="1360" />
            </Array>
            <mxPoint as="offset" />
          </mxGeometry>
        </mxCell>
        <mxCell id="IWSV0h7KsMsJ5lvwP99l-49" value="&lt;div&gt;events/{event_id}/sections/{section_id}/seats&lt;/div&gt;&lt;div&gt;return SeatResource[]&lt;/div&gt;" style="endArrow=block;endFill=1;html=1;edgeStyle=orthogonalEdgeStyle;align=left;verticalAlign=top;rounded=0;fontSize=10;" edge="1" parent="1">
          <mxGeometry x="-1" relative="1" as="geometry">
            <mxPoint x="-520" y="680" as="sourcePoint" />
            <mxPoint x="-275" y="680" as="targetPoint" />
            <Array as="points">
              <mxPoint x="-400" y="680" />
              <mxPoint x="-400" y="680" />
            </Array>
          </mxGeometry>
        </mxCell>
        <mxCell id="IWSV0h7KsMsJ5lvwP99l-50" value="Send(ListSeats)&lt;div&gt;&lt;div style=&quot;font-size: 10px;&quot;&gt;return: Seat[]&lt;/div&gt;&lt;/div&gt;" style="endArrow=block;endFill=1;html=1;edgeStyle=orthogonalEdgeStyle;align=left;verticalAlign=top;rounded=0;fontSize=10;" edge="1" parent="1" target="IWSV0h7KsMsJ5lvwP99l-121">
          <mxGeometry x="-1" relative="1" as="geometry">
            <mxPoint x="-265" y="679.9985057471265" as="sourcePoint" />
            <mxPoint x="-5" y="679.9985057471265" as="targetPoint" />
            <Array as="points">
              <mxPoint x="-265" y="681" />
            </Array>
          </mxGeometry>
        </mxCell>
        <mxCell id="IWSV0h7KsMsJ5lvwP99l-51" value="" style="html=1;verticalAlign=bottom;endArrow=open;dashed=1;endSize=8;curved=0;rounded=0;" edge="1" parent="1" source="IWSV0h7KsMsJ5lvwP99l-32">
          <mxGeometry relative="1" as="geometry">
            <mxPoint x="-275" y="790" as="sourcePoint" />
            <mxPoint x="-520" y="790" as="targetPoint" />
            <Array as="points" />
          </mxGeometry>
        </mxCell>
        <mxCell id="IWSV0h7KsMsJ5lvwP99l-52" value="GET" style="text;html=1;align=left;verticalAlign=middle;resizable=0;points=[];autosize=1;strokeColor=none;fillColor=none;spacing=1;fontSize=11;" vertex="1" parent="1">
          <mxGeometry x="-520" y="214" width="40" height="20" as="geometry" />
        </mxCell>
        <mxCell id="IWSV0h7KsMsJ5lvwP99l-53" value="Send(CartItemAdd)&lt;div&gt;return: Cart&lt;/div&gt;" style="endArrow=block;endFill=1;html=1;edgeStyle=orthogonalEdgeStyle;align=left;verticalAlign=top;rounded=0;fontSize=10;" edge="1" parent="1" source="IWSV0h7KsMsJ5lvwP99l-43" target="IWSV0h7KsMsJ5lvwP99l-124">
          <mxGeometry x="-1" relative="1" as="geometry">
            <mxPoint x="-135" y="820.24" as="sourcePoint" />
            <mxPoint x="0.2899999999999636" y="819.9999400000002" as="targetPoint" />
            <Array as="points">
              <mxPoint x="-110" y="820" />
              <mxPoint x="-110" y="820" />
            </Array>
          </mxGeometry>
        </mxCell>
        <mxCell id="IWSV0h7KsMsJ5lvwP99l-54" value="HandleRequest()&lt;div&gt;&lt;div style=&quot;font-size: 10px;&quot;&gt;&lt;div style=&quot;font-size: 10px;&quot;&gt;return: Cart&lt;/div&gt;&lt;/div&gt;&lt;/div&gt;" style="endArrow=block;endFill=1;html=1;edgeStyle=orthogonalEdgeStyle;align=left;verticalAlign=top;rounded=0;fontSize=10;" edge="1" parent="1" source="IWSV0h7KsMsJ5lvwP99l-124" target="IWSV0h7KsMsJ5lvwP99l-92">
          <mxGeometry x="-1" relative="1" as="geometry">
            <mxPoint x="15" y="820.005" as="sourcePoint" />
            <mxPoint x="435" y="820" as="targetPoint" />
            <Array as="points">
              <mxPoint x="400" y="821" />
              <mxPoint x="400" y="821" />
            </Array>
          </mxGeometry>
        </mxCell>
        <mxCell id="IWSV0h7KsMsJ5lvwP99l-55" value="" style="endArrow=block;endFill=1;html=1;edgeStyle=orthogonalEdgeStyle;align=left;verticalAlign=top;rounded=0;fontSize=10;" edge="1" parent="1" source="IWSV0h7KsMsJ5lvwP99l-92" target="IWSV0h7KsMsJ5lvwP99l-10">
          <mxGeometry x="-1" relative="1" as="geometry">
            <mxPoint x="600" y="820.48" as="sourcePoint" />
            <mxPoint x="1015" y="820" as="targetPoint" />
            <Array as="points">
              <mxPoint x="940" y="820" />
              <mxPoint x="940" y="820" />
            </Array>
          </mxGeometry>
        </mxCell>
        <mxCell id="IWSV0h7KsMsJ5lvwP99l-56" value="" style="html=1;verticalAlign=bottom;endArrow=open;dashed=1;endSize=8;curved=0;rounded=0;exitX=0;exitY=1;exitDx=0;exitDy=-5;exitPerimeter=0;" edge="1" parent="1" source="IWSV0h7KsMsJ5lvwP99l-10" target="IWSV0h7KsMsJ5lvwP99l-92">
          <mxGeometry relative="1" as="geometry">
            <mxPoint x="835" y="780" as="sourcePoint" />
            <mxPoint x="420" y="781" as="targetPoint" />
          </mxGeometry>
        </mxCell>
        <mxCell id="IWSV0h7KsMsJ5lvwP99l-57" value="&amp;lt;exists&amp;gt;" style="edgeLabel;html=1;align=center;verticalAlign=middle;resizable=0;points=[];fontSize=10;" vertex="1" connectable="0" parent="IWSV0h7KsMsJ5lvwP99l-56">
          <mxGeometry x="0.0731" relative="1" as="geometry">
            <mxPoint as="offset" />
          </mxGeometry>
        </mxCell>
        <mxCell id="IWSV0h7KsMsJ5lvwP99l-58" value="" style="endArrow=block;endFill=1;html=1;edgeStyle=orthogonalEdgeStyle;align=left;verticalAlign=top;rounded=0;fontSize=10;" edge="1" parent="1" source="IWSV0h7KsMsJ5lvwP99l-92" target="IWSV0h7KsMsJ5lvwP99l-9">
          <mxGeometry x="-1" relative="1" as="geometry">
            <mxPoint x="595" y="830" as="sourcePoint" />
            <mxPoint x="860" y="830" as="targetPoint" />
            <Array as="points">
              <mxPoint x="790" y="930" />
              <mxPoint x="790" y="930" />
            </Array>
          </mxGeometry>
        </mxCell>
        <mxCell id="IWSV0h7KsMsJ5lvwP99l-59" value="" style="html=1;points=[[0,0,0,0,5],[0,1,0,0,-5],[1,0,0,0,5],[1,1,0,0,-5]];perimeter=orthogonalPerimeter;outlineConnect=0;targetShapes=umlLifeline;portConstraint=eastwest;newEdgeStyle={&quot;curved&quot;:0,&quot;rounded&quot;:0};" vertex="1" parent="1">
          <mxGeometry x="-519.5" y="590.01" width="10" height="40" as="geometry" />
        </mxCell>
        <mxCell id="IWSV0h7KsMsJ5lvwP99l-60" value="Choose section with lowest min price" style="html=1;align=left;spacingLeft=2;endArrow=block;rounded=0;edgeStyle=orthogonalEdgeStyle;curved=0;rounded=0;fontSize=8;" edge="1" parent="1" target="IWSV0h7KsMsJ5lvwP99l-59">
          <mxGeometry x="-0.0005" relative="1" as="geometry">
            <mxPoint x="-519.4000000000001" y="580" as="sourcePoint" />
            <Array as="points">
              <mxPoint x="-480.5" y="580.01" />
              <mxPoint x="-480.5" y="610.01" />
            </Array>
            <mxPoint as="offset" />
          </mxGeometry>
        </mxCell>
        <mxCell id="IWSV0h7KsMsJ5lvwP99l-61" value="&lt;div&gt;orders/carts/{cart_id}&lt;/div&gt;&lt;div&gt;{&lt;/div&gt;&lt;div&gt;&amp;nbsp; eventId, seatId, priceId&lt;/div&gt;&lt;div&gt;}&lt;/div&gt;&lt;div&gt;return CartResource&lt;/div&gt;" style="endArrow=block;endFill=1;html=1;edgeStyle=orthogonalEdgeStyle;align=left;verticalAlign=top;rounded=0;fontSize=10;" edge="1" parent="1" target="IWSV0h7KsMsJ5lvwP99l-43">
          <mxGeometry x="-1" relative="1" as="geometry">
            <mxPoint x="-520" y="820" as="sourcePoint" />
            <mxPoint x="-275" y="820" as="targetPoint" />
            <Array as="points">
              <mxPoint x="-340" y="820" />
              <mxPoint x="-340" y="820" />
            </Array>
            <mxPoint as="offset" />
          </mxGeometry>
        </mxCell>
        <mxCell id="IWSV0h7KsMsJ5lvwP99l-62" value="GET" style="text;html=1;align=left;verticalAlign=middle;resizable=0;points=[];autosize=1;strokeColor=none;fillColor=none;spacing=1;fontSize=11;" vertex="1" parent="1">
          <mxGeometry x="-520" y="660" width="40" height="20" as="geometry" />
        </mxCell>
        <mxCell id="IWSV0h7KsMsJ5lvwP99l-63" value="" style="endArrow=block;endFill=1;html=1;edgeStyle=orthogonalEdgeStyle;align=left;verticalAlign=top;rounded=0;fontSize=10;" edge="1" parent="1" source="IWSV0h7KsMsJ5lvwP99l-99" target="IWSV0h7KsMsJ5lvwP99l-8">
          <mxGeometry x="-1" relative="1" as="geometry">
            <mxPoint x="435" y="680.48" as="sourcePoint" />
            <mxPoint x="850" y="680" as="targetPoint" />
            <Array as="points">
              <mxPoint x="1080" y="680" />
              <mxPoint x="1080" y="680" />
            </Array>
          </mxGeometry>
        </mxCell>
        <mxCell id="IWSV0h7KsMsJ5lvwP99l-64" value="POST" style="text;html=1;align=left;verticalAlign=middle;resizable=0;points=[];autosize=1;strokeColor=none;fillColor=none;fontSize=10;spacing=1;" vertex="1" parent="1">
          <mxGeometry x="-520" y="800" width="50" height="20" as="geometry" />
        </mxCell>
        <mxCell id="IWSV0h7KsMsJ5lvwP99l-65" value="opt" style="shape=umlFrame;whiteSpace=wrap;html=1;pointerEvents=0;textOpacity=50;" vertex="1" parent="1">
          <mxGeometry x="640" y="870" width="760" height="100" as="geometry" />
        </mxCell>
        <mxCell id="IWSV0h7KsMsJ5lvwP99l-66" value="" style="html=1;verticalAlign=bottom;endArrow=open;dashed=1;endSize=8;curved=0;rounded=0;exitX=0.005;exitY=1.002;exitDx=0;exitDy=0;exitPerimeter=0;" edge="1" parent="1" source="IWSV0h7KsMsJ5lvwP99l-9" target="IWSV0h7KsMsJ5lvwP99l-92">
          <mxGeometry relative="1" as="geometry">
            <mxPoint x="850" y="960" as="sourcePoint" />
            <mxPoint x="585" y="960" as="targetPoint" />
          </mxGeometry>
        </mxCell>
        <mxCell id="IWSV0h7KsMsJ5lvwP99l-67" value="&amp;lt;updatedCount&amp;gt;" style="edgeLabel;html=1;align=center;verticalAlign=middle;resizable=0;points=[];fontSize=10;" vertex="1" connectable="0" parent="IWSV0h7KsMsJ5lvwP99l-66">
          <mxGeometry x="0.0731" relative="1" as="geometry">
            <mxPoint as="offset" />
          </mxGeometry>
        </mxCell>
        <mxCell id="IWSV0h7KsMsJ5lvwP99l-68" value="" style="endArrow=block;endFill=1;html=1;edgeStyle=orthogonalEdgeStyle;align=left;verticalAlign=top;rounded=0;fontSize=10;entryX=-0.047;entryY=0;entryDx=0;entryDy=0;entryPerimeter=0;" edge="1" parent="1" source="IWSV0h7KsMsJ5lvwP99l-92" target="IWSV0h7KsMsJ5lvwP99l-11">
          <mxGeometry x="-1" relative="1" as="geometry">
            <mxPoint x="595" y="940" as="sourcePoint" />
            <mxPoint x="860" y="940" as="targetPoint" />
            <Array as="points">
              <mxPoint x="720" y="990" />
              <mxPoint x="720" y="990" />
            </Array>
          </mxGeometry>
        </mxCell>
        <mxCell id="IWSV0h7KsMsJ5lvwP99l-69" value="" style="html=1;verticalAlign=bottom;endArrow=open;dashed=1;endSize=8;curved=0;rounded=0;entryX=1.031;entryY=0.868;entryDx=0;entryDy=0;entryPerimeter=0;" edge="1" parent="1" source="IWSV0h7KsMsJ5lvwP99l-11" target="IWSV0h7KsMsJ5lvwP99l-92">
          <mxGeometry relative="1" as="geometry">
            <mxPoint x="850" y="1019" as="sourcePoint" />
            <mxPoint x="584.9999999999998" y="1019" as="targetPoint" />
          </mxGeometry>
        </mxCell>
        <mxCell id="IWSV0h7KsMsJ5lvwP99l-70" value="&amp;lt;updatedCount&amp;gt;" style="edgeLabel;html=1;align=center;verticalAlign=middle;resizable=0;points=[];fontSize=10;" vertex="1" connectable="0" parent="IWSV0h7KsMsJ5lvwP99l-69">
          <mxGeometry x="0.0731" relative="1" as="geometry">
            <mxPoint as="offset" />
          </mxGeometry>
        </mxCell>
        <mxCell id="IWSV0h7KsMsJ5lvwP99l-71" value="" style="html=1;verticalAlign=bottom;endArrow=open;dashed=1;endSize=8;curved=0;rounded=0;exitX=0;exitY=1;exitDx=0;exitDy=-5;exitPerimeter=0;entryX=1;entryY=1;entryDx=0;entryDy=-5;entryPerimeter=0;" edge="1" parent="1" source="IWSV0h7KsMsJ5lvwP99l-92" target="IWSV0h7KsMsJ5lvwP99l-124">
          <mxGeometry relative="1" as="geometry">
            <mxPoint x="435" y="725" as="sourcePoint" />
            <mxPoint x="15" y="725" as="targetPoint" />
          </mxGeometry>
        </mxCell>
        <mxCell id="IWSV0h7KsMsJ5lvwP99l-72" value="" style="html=1;verticalAlign=bottom;endArrow=open;dashed=1;endSize=8;curved=0;rounded=0;" edge="1" parent="1" source="IWSV0h7KsMsJ5lvwP99l-124" target="IWSV0h7KsMsJ5lvwP99l-43">
          <mxGeometry relative="1" as="geometry">
            <mxPoint x="70" y="950" as="sourcePoint" />
            <mxPoint x="-190" y="950" as="targetPoint" />
            <Array as="points">
              <mxPoint x="-70" y="1050" />
            </Array>
          </mxGeometry>
        </mxCell>
        <mxCell id="IWSV0h7KsMsJ5lvwP99l-73" value="" style="html=1;verticalAlign=bottom;endArrow=open;dashed=1;endSize=8;curved=0;rounded=0;" edge="1" parent="1" source="IWSV0h7KsMsJ5lvwP99l-43" target="IWSV0h7KsMsJ5lvwP99l-4">
          <mxGeometry relative="1" as="geometry">
            <mxPoint x="-259" y="1090" as="sourcePoint" />
            <mxPoint x="-504" y="1090" as="targetPoint" />
            <Array as="points">
              <mxPoint x="-340" y="1150" />
            </Array>
          </mxGeometry>
        </mxCell>
        <mxCell id="IWSV0h7KsMsJ5lvwP99l-74" value="&lt;div&gt;orders/carts/{cart_id}/book&lt;/div&gt;&lt;div&gt;return PaymentResource&lt;/div&gt;" style="endArrow=block;endFill=1;html=1;edgeStyle=orthogonalEdgeStyle;align=left;verticalAlign=top;rounded=0;fontSize=10;" edge="1" parent="1" source="IWSV0h7KsMsJ5lvwP99l-4" target="IWSV0h7KsMsJ5lvwP99l-46">
          <mxGeometry x="-1" relative="1" as="geometry">
            <mxPoint x="-440" y="1190" as="sourcePoint" />
            <mxPoint x="-200" y="1190" as="targetPoint" />
            <Array as="points">
              <mxPoint x="-220" y="1190" />
              <mxPoint x="-220" y="1190" />
            </Array>
            <mxPoint as="offset" />
          </mxGeometry>
        </mxCell>
        <mxCell id="IWSV0h7KsMsJ5lvwP99l-75" value="PUT" style="text;html=1;align=left;verticalAlign=middle;resizable=0;points=[];autosize=1;strokeColor=none;fillColor=none;fontSize=10;spacing=1;" vertex="1" parent="1">
          <mxGeometry x="-520" y="1170" width="40" height="20" as="geometry" />
        </mxCell>
        <mxCell id="IWSV0h7KsMsJ5lvwP99l-76" value="Send(BookCartItems)&lt;div&gt;return: PaymentId&lt;/div&gt;" style="endArrow=block;endFill=1;html=1;edgeStyle=orthogonalEdgeStyle;align=left;verticalAlign=top;rounded=0;fontSize=10;" edge="1" parent="1" source="IWSV0h7KsMsJ5lvwP99l-46" target="IWSV0h7KsMsJ5lvwP99l-122">
          <mxGeometry x="-1" relative="1" as="geometry">
            <mxPoint x="-145" y="1190" as="sourcePoint" />
            <mxPoint x="-5" y="1190" as="targetPoint" />
            <Array as="points">
              <mxPoint x="-110" y="1190" />
              <mxPoint x="-110" y="1190" />
            </Array>
          </mxGeometry>
        </mxCell>
        <mxCell id="IWSV0h7KsMsJ5lvwP99l-77" value="HandleRequest()&lt;div&gt;&lt;div style=&quot;font-size: 10px;&quot;&gt;&lt;div style=&quot;font-size: 10px;&quot;&gt;return: PaymentId&lt;/div&gt;&lt;/div&gt;&lt;/div&gt;" style="endArrow=block;endFill=1;html=1;edgeStyle=orthogonalEdgeStyle;align=left;verticalAlign=top;rounded=0;fontSize=10;" edge="1" parent="1" source="IWSV0h7KsMsJ5lvwP99l-122" target="IWSV0h7KsMsJ5lvwP99l-103">
          <mxGeometry x="-1" relative="1" as="geometry">
            <mxPoint x="50" y="1200.005" as="sourcePoint" />
            <mxPoint x="870" y="1190" as="targetPoint" />
            <Array as="points">
              <mxPoint x="460" y="1190" />
              <mxPoint x="460" y="1190" />
            </Array>
          </mxGeometry>
        </mxCell>
        <mxCell id="IWSV0h7KsMsJ5lvwP99l-78" value="" style="endArrow=block;endFill=1;html=1;edgeStyle=orthogonalEdgeStyle;align=left;verticalAlign=top;rounded=0;fontSize=10;" edge="1" parent="1" source="IWSV0h7KsMsJ5lvwP99l-103" target="IWSV0h7KsMsJ5lvwP99l-12">
          <mxGeometry x="-1" relative="1" as="geometry">
            <mxPoint x="655" y="1160" as="sourcePoint" />
            <mxPoint x="1240" y="1160" as="targetPoint" />
            <Array as="points">
              <mxPoint x="990" y="1260" />
              <mxPoint x="990" y="1260" />
            </Array>
          </mxGeometry>
        </mxCell>
        <mxCell id="IWSV0h7KsMsJ5lvwP99l-79" value="" style="html=1;verticalAlign=bottom;endArrow=open;dashed=1;endSize=8;curved=0;rounded=0;" edge="1" parent="1" source="IWSV0h7KsMsJ5lvwP99l-12" target="IWSV0h7KsMsJ5lvwP99l-103">
          <mxGeometry relative="1" as="geometry">
            <mxPoint x="1147.5" y="1230" as="sourcePoint" />
            <mxPoint x="562.5" y="1230" as="targetPoint" />
            <Array as="points">
              <mxPoint x="960" y="1300" />
            </Array>
          </mxGeometry>
        </mxCell>
        <mxCell id="IWSV0h7KsMsJ5lvwP99l-80" value="&amp;lt;updatedCount&amp;gt;" style="edgeLabel;html=1;align=center;verticalAlign=middle;resizable=0;points=[];fontSize=10;" vertex="1" connectable="0" parent="IWSV0h7KsMsJ5lvwP99l-79">
          <mxGeometry x="0.0731" relative="1" as="geometry">
            <mxPoint as="offset" />
          </mxGeometry>
        </mxCell>
        <mxCell id="IWSV0h7KsMsJ5lvwP99l-81" value="" style="group" vertex="1" connectable="0" parent="1">
          <mxGeometry x="740" y="1310" width="330" height="20" as="geometry" />
        </mxCell>
        <mxCell id="IWSV0h7KsMsJ5lvwP99l-82" value="" style="endArrow=block;endFill=1;html=1;edgeStyle=orthogonalEdgeStyle;align=left;verticalAlign=top;rounded=0;fontSize=10;" edge="1" parent="1" source="IWSV0h7KsMsJ5lvwP99l-103" target="IWSV0h7KsMsJ5lvwP99l-14">
          <mxGeometry x="-1" relative="1" as="geometry">
            <mxPoint x="740" y="1190" as="sourcePoint" />
            <mxPoint x="1170" y="1190" as="targetPoint" />
            <Array as="points">
              <mxPoint x="1060" y="1190" />
              <mxPoint x="1060" y="1190" />
            </Array>
          </mxGeometry>
        </mxCell>
        <mxCell id="IWSV0h7KsMsJ5lvwP99l-83" value="" style="html=1;verticalAlign=bottom;endArrow=open;dashed=1;endSize=8;curved=0;rounded=0;" edge="1" parent="1" source="IWSV0h7KsMsJ5lvwP99l-14" target="IWSV0h7KsMsJ5lvwP99l-103">
          <mxGeometry relative="1" as="geometry">
            <mxPoint x="1170" y="1230" as="sourcePoint" />
            <mxPoint x="880" y="1230" as="targetPoint" />
            <Array as="points">
              <mxPoint x="960" y="1230" />
            </Array>
          </mxGeometry>
        </mxCell>
        <mxCell id="IWSV0h7KsMsJ5lvwP99l-84" value="&amp;lt;seatId[]&amp;gt;" style="edgeLabel;html=1;align=center;verticalAlign=middle;resizable=0;points=[];fontSize=10;" vertex="1" connectable="0" parent="IWSV0h7KsMsJ5lvwP99l-83">
          <mxGeometry x="0.0731" relative="1" as="geometry">
            <mxPoint as="offset" />
          </mxGeometry>
        </mxCell>
        <mxCell id="IWSV0h7KsMsJ5lvwP99l-85" value="" style="html=1;verticalAlign=bottom;endArrow=open;dashed=1;endSize=8;curved=0;rounded=0;" edge="1" parent="1" source="IWSV0h7KsMsJ5lvwP99l-13" target="IWSV0h7KsMsJ5lvwP99l-103">
          <mxGeometry relative="1" as="geometry">
            <mxPoint x="1170" y="1370" as="sourcePoint" />
            <mxPoint x="740" y="1371" as="targetPoint" />
            <Array as="points">
              <mxPoint x="960" y="1380" />
            </Array>
          </mxGeometry>
        </mxCell>
        <mxCell id="IWSV0h7KsMsJ5lvwP99l-86" value="&amp;lt;paymentId&amp;gt;" style="edgeLabel;html=1;align=center;verticalAlign=middle;resizable=0;points=[];fontSize=10;" vertex="1" connectable="0" parent="IWSV0h7KsMsJ5lvwP99l-85">
          <mxGeometry x="0.0731" relative="1" as="geometry">
            <mxPoint as="offset" />
          </mxGeometry>
        </mxCell>
        <mxCell id="IWSV0h7KsMsJ5lvwP99l-87" value="" style="html=1;verticalAlign=bottom;endArrow=open;dashed=1;endSize=8;curved=0;rounded=0;" edge="1" parent="1" source="IWSV0h7KsMsJ5lvwP99l-103" target="IWSV0h7KsMsJ5lvwP99l-122">
          <mxGeometry relative="1" as="geometry">
            <mxPoint x="630" y="1340" as="sourcePoint" />
            <mxPoint x="60" y="1341" as="targetPoint" />
            <Array as="points">
              <mxPoint x="380" y="1390" />
            </Array>
          </mxGeometry>
        </mxCell>
        <mxCell id="IWSV0h7KsMsJ5lvwP99l-88" value="" style="html=1;verticalAlign=bottom;endArrow=open;dashed=1;endSize=8;curved=0;rounded=0;exitX=-0.138;exitY=0.998;exitDx=0;exitDy=0;exitPerimeter=0;" edge="1" parent="1" source="IWSV0h7KsMsJ5lvwP99l-122" target="IWSV0h7KsMsJ5lvwP99l-46">
          <mxGeometry relative="1" as="geometry">
            <mxPoint x="40" y="1440" as="sourcePoint" />
            <mxPoint x="-100" y="1440" as="targetPoint" />
            <Array as="points">
              <mxPoint x="-90" y="1390" />
            </Array>
          </mxGeometry>
        </mxCell>
        <mxCell id="IWSV0h7KsMsJ5lvwP99l-89" value="" style="html=1;verticalAlign=bottom;endArrow=open;dashed=1;endSize=8;curved=0;rounded=0;exitX=-0.043;exitY=0.997;exitDx=0;exitDy=0;exitPerimeter=0;" edge="1" parent="1" source="IWSV0h7KsMsJ5lvwP99l-46" target="IWSV0h7KsMsJ5lvwP99l-4">
          <mxGeometry relative="1" as="geometry">
            <mxPoint x="-82.5" y="1400" as="sourcePoint" />
            <mxPoint x="-447.5" y="1400" as="targetPoint" />
            <Array as="points">
              <mxPoint x="-270" y="1479" />
            </Array>
          </mxGeometry>
        </mxCell>
        <mxCell id="IWSV0h7KsMsJ5lvwP99l-90" value="" style="group" vertex="1" connectable="0" parent="1">
          <mxGeometry x="650" y="99" width="160" height="1781" as="geometry" />
        </mxCell>
        <mxCell id="IWSV0h7KsMsJ5lvwP99l-91" value="CartItemAddHandler" style="shape=umlLifeline;perimeter=lifelinePerimeter;whiteSpace=wrap;html=1;container=1;dropTarget=0;collapsible=0;recursiveResize=0;outlineConnect=0;portConstraint=eastwest;newEdgeStyle={&quot;curved&quot;:0,&quot;rounded&quot;:0};" vertex="1" parent="IWSV0h7KsMsJ5lvwP99l-90">
          <mxGeometry width="120" height="1781" as="geometry" />
        </mxCell>
        <mxCell id="IWSV0h7KsMsJ5lvwP99l-92" value="" style="html=1;points=[[0,0,0,0,5],[0,1,0,0,-5],[1,0,0,0,5],[1,1,0,0,-5]];perimeter=orthogonalPerimeter;outlineConnect=0;targetShapes=umlLifeline;portConstraint=eastwest;newEdgeStyle={&quot;curved&quot;:0,&quot;rounded&quot;:0};" vertex="1" parent="IWSV0h7KsMsJ5lvwP99l-91">
          <mxGeometry x="55" y="721" width="10" height="229" as="geometry" />
        </mxCell>
        <mxCell id="IWSV0h7KsMsJ5lvwP99l-93" value="Create cart" style="text;html=1;align=left;verticalAlign=middle;resizable=0;points=[];autosize=1;strokeColor=none;fillColor=none;fontSize=10;spacing=1;" vertex="1" parent="IWSV0h7KsMsJ5lvwP99l-90">
          <mxGeometry x="70" y="814" width="70" height="20" as="geometry" />
        </mxCell>
        <mxCell id="IWSV0h7KsMsJ5lvwP99l-94" value="Get cart by guid" style="text;html=1;align=left;verticalAlign=middle;resizable=0;points=[];autosize=1;strokeColor=none;fillColor=none;fontSize=10;spacing=1;" vertex="1" parent="IWSV0h7KsMsJ5lvwP99l-90">
          <mxGeometry x="70" y="704" width="90" height="20" as="geometry" />
        </mxCell>
        <mxCell id="IWSV0h7KsMsJ5lvwP99l-95" value="Create cart item" style="text;html=1;align=left;verticalAlign=middle;resizable=0;points=[];autosize=1;strokeColor=none;fillColor=none;fontSize=10;spacing=1;" vertex="1" parent="IWSV0h7KsMsJ5lvwP99l-90">
          <mxGeometry x="70" y="874" width="90" height="20" as="geometry" />
        </mxCell>
        <mxCell id="IWSV0h7KsMsJ5lvwP99l-96" value="!exists&amp;nbsp;" style="text;html=1;align=left;verticalAlign=middle;resizable=0;points=[];autosize=1;strokeColor=none;fillColor=none;opacity=50;fontSize=9;fontColor=#A8A8A8;spacing=2;" vertex="1" parent="IWSV0h7KsMsJ5lvwP99l-90">
          <mxGeometry x="55" y="794" width="50" height="20" as="geometry" />
        </mxCell>
        <mxCell id="IWSV0h7KsMsJ5lvwP99l-97" value="" style="group" vertex="1" connectable="0" parent="1">
          <mxGeometry x="510" y="100.00000000000001" width="216" height="1779.99" as="geometry" />
        </mxCell>
        <mxCell id="IWSV0h7KsMsJ5lvwP99l-98" value="ListSeatsHandler" style="shape=umlLifeline;perimeter=lifelinePerimeter;whiteSpace=wrap;html=1;container=1;dropTarget=0;collapsible=0;recursiveResize=0;outlineConnect=0;portConstraint=eastwest;newEdgeStyle={&quot;curved&quot;:0,&quot;rounded&quot;:0};fontSize=10;" vertex="1" parent="IWSV0h7KsMsJ5lvwP99l-97">
          <mxGeometry width="100" height="1779.99" as="geometry" />
        </mxCell>
        <mxCell id="IWSV0h7KsMsJ5lvwP99l-99" value="" style="html=1;points=[[0,0,0,0,5],[0,1,0,0,-5],[1,0,0,0,5],[1,1,0,0,-5]];perimeter=orthogonalPerimeter;outlineConnect=0;targetShapes=umlLifeline;portConstraint=eastwest;newEdgeStyle={&quot;curved&quot;:0,&quot;rounded&quot;:0};" vertex="1" parent="IWSV0h7KsMsJ5lvwP99l-98">
          <mxGeometry x="45" y="579.99" width="10" height="40.01" as="geometry" />
        </mxCell>
        <mxCell id="IWSV0h7KsMsJ5lvwP99l-100" value="Get seats with status &#39;available&#39;" style="text;html=1;align=left;verticalAlign=middle;resizable=0;points=[];autosize=1;strokeColor=none;fillColor=none;fontSize=10;spacing=1;" vertex="1" parent="IWSV0h7KsMsJ5lvwP99l-97">
          <mxGeometry x="56" y="561.98" width="160" height="20" as="geometry" />
        </mxCell>
        <mxCell id="IWSV0h7KsMsJ5lvwP99l-101" value="" style="group" vertex="1" connectable="0" parent="1">
          <mxGeometry x="840" y="100.01" width="300" height="1781" as="geometry" />
        </mxCell>
        <mxCell id="IWSV0h7KsMsJ5lvwP99l-102" value="CartItemsBook&lt;span style=&quot;color: rgba(0, 0, 0, 0); font-family: monospace; font-size: 0px; text-align: start; text-wrap: nowrap;&quot;&gt;%3CmxGraphModel%3E%3Croot%3E%3CmxCell%20id%3D%220%22%2F%3E%3CmxCell%20id%3D%221%22%20parent%3D%220%22%2F%3E%3CmxCell%20id%3D%222%22%20value%3D%22CartItemAddHandler%22%20style%3D%22shape%3DumlLifeline%3Bperimeter%3DlifelinePerimeter%3BwhiteSpace%3Dwrap%3Bhtml%3D1%3Bcontainer%3D1%3BdropTarget%3D0%3Bcollapsible%3D0%3BrecursiveResize%3D0%3BoutlineConnect%3D0%3BportConstraint%3Deastwest%3BnewEdgeStyle%3D%7B%26quot%3Bcurved%26quot%3B%3A0%2C%26quot%3Brounded%26quot%3B%3A0%7D%3B%22%20vertex%3D%221%22%20parent%3D%221%22%3E%3CmxGeometry%20x%3D%22520%22%20y%3D%2299%22%20width%3D%22120%22%20height%3D%221451%22%20as%3D%22geometry%22%2F%3E%3C%2FmxCell%3E%3CmxCell%20id%3D%223%22%20value%3D%22%22%20style%3D%22html%3D1%3Bpoints%3D%5B%5B0%2C0%2C0%2C0%2C5%5D%2C%5B0%2C1%2C0%2C0%2C-5%5D%2C%5B1%2C0%2C0%2C0%2C5%5D%2C%5B1%2C1%2C0%2C0%2C-5%5D%5D%3Bperimeter%3DorthogonalPerimeter%3BoutlineConnect%3D0%3BtargetShapes%3DumlLifeline%3BportConstraint%3Deastwest%3BnewEdgeStyle%3D%7B%26quot%3Bcurved%26quot%3B%3A0%2C%26quot%3Brounded%26quot%3B%3A0%7D%3B%22%20vertex%3D%221%22%20parent%3D%222%22%3E%3CmxGeometry%20x%3D%2255%22%20y%3D%22721%22%20width%3D%2210%22%20height%3D%22229%22%20as%3D%22geometry%22%2F%3E%3C%2FmxCell%3E%3C%2Froot%3E%3C%2FmxGraphModel%3E&lt;/span&gt;Handler" style="shape=umlLifeline;perimeter=lifelinePerimeter;whiteSpace=wrap;html=1;container=1;dropTarget=0;collapsible=0;recursiveResize=0;outlineConnect=0;portConstraint=eastwest;newEdgeStyle={&quot;curved&quot;:0,&quot;rounded&quot;:0};" vertex="1" parent="IWSV0h7KsMsJ5lvwP99l-101">
          <mxGeometry width="130" height="1781" as="geometry" />
        </mxCell>
        <mxCell id="IWSV0h7KsMsJ5lvwP99l-103" value="" style="html=1;points=[[0,0,0,0,5],[0,1,0,0,-5],[1,0,0,0,5],[1,1,0,0,-5]];perimeter=orthogonalPerimeter;outlineConnect=0;targetShapes=umlLifeline;portConstraint=eastwest;newEdgeStyle={&quot;curved&quot;:0,&quot;rounded&quot;:0};" vertex="1" parent="IWSV0h7KsMsJ5lvwP99l-102">
          <mxGeometry x="60" y="1090" width="10" height="200" as="geometry" />
        </mxCell>
        <mxCell id="IWSV0h7KsMsJ5lvwP99l-104" value="Move seats associated with cart to booked state" style="text;html=1;align=left;verticalAlign=middle;resizable=0;points=[];autosize=1;strokeColor=none;fillColor=none;fontSize=10;spacing=1;" vertex="1" parent="IWSV0h7KsMsJ5lvwP99l-101">
          <mxGeometry x="70" y="1139.99" width="230" height="20" as="geometry" />
        </mxCell>
        <mxCell id="IWSV0h7KsMsJ5lvwP99l-105" value="Create payment" style="text;html=1;align=left;verticalAlign=middle;resizable=0;points=[];autosize=1;strokeColor=none;fillColor=none;fontSize=10;spacing=1;" vertex="1" parent="IWSV0h7KsMsJ5lvwP99l-101">
          <mxGeometry x="70" y="1219.99" width="90" height="20" as="geometry" />
        </mxCell>
        <mxCell id="IWSV0h7KsMsJ5lvwP99l-106" value="Get seat ids associated with the cart" style="text;html=1;align=left;verticalAlign=middle;resizable=0;points=[];autosize=1;strokeColor=none;fillColor=none;spacing=1;fontSize=10;" vertex="1" parent="IWSV0h7KsMsJ5lvwP99l-101">
          <mxGeometry x="70" y="1069.99" width="180" height="20" as="geometry" />
        </mxCell>
        <mxCell id="IWSV0h7KsMsJ5lvwP99l-107" value="" style="endArrow=block;endFill=1;html=1;edgeStyle=orthogonalEdgeStyle;align=left;verticalAlign=top;rounded=0;fontSize=10;" edge="1" parent="1" source="IWSV0h7KsMsJ5lvwP99l-103" target="IWSV0h7KsMsJ5lvwP99l-13">
          <mxGeometry x="-1" relative="1" as="geometry">
            <mxPoint x="740" y="1220" as="sourcePoint" />
            <mxPoint x="1130" y="1280" as="targetPoint" />
            <Array as="points">
              <mxPoint x="950" y="1340" />
              <mxPoint x="950" y="1340" />
            </Array>
          </mxGeometry>
        </mxCell>
        <mxCell id="IWSV0h7KsMsJ5lvwP99l-108" value="" style="group" vertex="1" connectable="0" parent="1">
          <mxGeometry x="290" y="100.01" width="372.5" height="1779.99" as="geometry" />
        </mxCell>
        <mxCell id="IWSV0h7KsMsJ5lvwP99l-109" value="" style="group" vertex="1" connectable="0" parent="IWSV0h7KsMsJ5lvwP99l-108">
          <mxGeometry width="372.5" height="1779.99" as="geometry" />
        </mxCell>
        <mxCell id="IWSV0h7KsMsJ5lvwP99l-110" value="" style="group" vertex="1" connectable="0" parent="IWSV0h7KsMsJ5lvwP99l-109">
          <mxGeometry width="372.5" height="1779.99" as="geometry" />
        </mxCell>
        <mxCell id="IWSV0h7KsMsJ5lvwP99l-111" value="&lt;span style=&quot;font-size: 10px; text-align: left; text-wrap: nowrap; background-color: rgb(255, 255, 255);&quot;&gt;ListSectionsWithPriceRange&lt;/span&gt;Handler" style="shape=umlLifeline;perimeter=lifelinePerimeter;whiteSpace=wrap;html=1;container=0;dropTarget=0;collapsible=0;recursiveResize=0;outlineConnect=0;portConstraint=eastwest;newEdgeStyle={&quot;curved&quot;:0,&quot;rounded&quot;:0};fontSize=10;" vertex="1" parent="IWSV0h7KsMsJ5lvwP99l-110">
          <mxGeometry width="175" height="1779.99" as="geometry" />
        </mxCell>
        <mxCell id="IWSV0h7KsMsJ5lvwP99l-112" value="Get sections of event by eventId" style="text;html=1;align=left;verticalAlign=middle;resizable=0;points=[];autosize=1;strokeColor=none;fillColor=none;fontSize=10;textOpacity=90;spacing=1;" vertex="1" parent="IWSV0h7KsMsJ5lvwP99l-110">
          <mxGeometry x="92.5" y="113.99" width="160" height="20" as="geometry" />
        </mxCell>
        <mxCell id="IWSV0h7KsMsJ5lvwP99l-113" value="Get min and max price of available seats for each section" style="text;html=1;align=left;verticalAlign=middle;resizable=0;points=[];autosize=1;strokeColor=none;fillColor=none;fontSize=10;spacing=1;" vertex="1" parent="IWSV0h7KsMsJ5lvwP99l-110">
          <mxGeometry x="92.5" y="182.99" width="280" height="20" as="geometry" />
        </mxCell>
        <mxCell id="IWSV0h7KsMsJ5lvwP99l-114" value="" style="html=1;points=[[0,0,0,0,5],[0,1,0,0,-5],[1,0,0,0,5],[1,1,0,0,-5]];perimeter=orthogonalPerimeter;outlineConnect=0;targetShapes=umlLifeline;portConstraint=eastwest;newEdgeStyle={&quot;curved&quot;:0,&quot;rounded&quot;:0};" vertex="1" parent="IWSV0h7KsMsJ5lvwP99l-110">
          <mxGeometry x="82.5" y="130" width="10" height="219.99" as="geometry" />
        </mxCell>
        <mxCell id="IWSV0h7KsMsJ5lvwP99l-115" value="" style="group" vertex="1" connectable="0" parent="IWSV0h7KsMsJ5lvwP99l-108">
          <mxGeometry x="87.5" y="259.99" width="35" height="60" as="geometry" />
        </mxCell>
        <mxCell id="IWSV0h7KsMsJ5lvwP99l-116" value="&lt;div style=&quot;text-align: center;&quot;&gt;AppendSectionData()&lt;/div&gt;" style="html=1;align=left;spacingLeft=2;endArrow=block;rounded=0;edgeStyle=orthogonalEdgeStyle;curved=0;rounded=0;fontSize=8;" edge="1" parent="IWSV0h7KsMsJ5lvwP99l-115" target="IWSV0h7KsMsJ5lvwP99l-117">
          <mxGeometry relative="1" as="geometry">
            <mxPoint x="5" as="sourcePoint" />
            <Array as="points">
              <mxPoint x="35" y="30" />
            </Array>
          </mxGeometry>
        </mxCell>
        <mxCell id="IWSV0h7KsMsJ5lvwP99l-117" value="" style="html=1;points=[[0,0,0,0,5],[0,1,0,0,-5],[1,0,0,0,5],[1,1,0,0,-5]];perimeter=orthogonalPerimeter;outlineConnect=0;targetShapes=umlLifeline;portConstraint=eastwest;newEdgeStyle={&quot;curved&quot;:0,&quot;rounded&quot;:0};" vertex="1" parent="IWSV0h7KsMsJ5lvwP99l-115">
          <mxGeometry y="20" width="10" height="40" as="geometry" />
        </mxCell>
        <mxCell id="IWSV0h7KsMsJ5lvwP99l-118" value="" style="group" vertex="1" connectable="0" parent="1">
          <mxGeometry x="130" y="100.00000000000001" width="230" height="1779.99" as="geometry" />
        </mxCell>
        <mxCell id="IWSV0h7KsMsJ5lvwP99l-119" value="" style="group" vertex="1" connectable="0" parent="IWSV0h7KsMsJ5lvwP99l-118">
          <mxGeometry width="100" height="1779.99" as="geometry" />
        </mxCell>
        <mxCell id="IWSV0h7KsMsJ5lvwP99l-120" value="Mediator" style="shape=umlLifeline;perimeter=lifelinePerimeter;whiteSpace=wrap;html=1;container=1;dropTarget=0;collapsible=0;recursiveResize=0;outlineConnect=0;portConstraint=eastwest;newEdgeStyle={&quot;curved&quot;:0,&quot;rounded&quot;:0};" vertex="1" parent="IWSV0h7KsMsJ5lvwP99l-119">
          <mxGeometry width="100" height="1779.99" as="geometry" />
        </mxCell>
        <mxCell id="IWSV0h7KsMsJ5lvwP99l-121" value="" style="html=1;points=[[0,0,0,0,5],[0,1,0,0,-5],[1,0,0,0,5],[1,1,0,0,-5]];perimeter=orthogonalPerimeter;outlineConnect=0;targetShapes=umlLifeline;portConstraint=eastwest;newEdgeStyle={&quot;curved&quot;:0,&quot;rounded&quot;:0};" vertex="1" parent="IWSV0h7KsMsJ5lvwP99l-120">
          <mxGeometry x="45" y="579.99" width="10" height="40.01" as="geometry" />
        </mxCell>
        <mxCell id="IWSV0h7KsMsJ5lvwP99l-122" value="" style="html=1;points=[[0,0,0,0,5],[0,1,0,0,-5],[1,0,0,0,5],[1,1,0,0,-5]];perimeter=orthogonalPerimeter;outlineConnect=0;targetShapes=umlLifeline;portConstraint=eastwest;newEdgeStyle={&quot;curved&quot;:0,&quot;rounded&quot;:0};" vertex="1" parent="IWSV0h7KsMsJ5lvwP99l-120">
          <mxGeometry x="45" y="1089.99" width="10" height="200.01" as="geometry" />
        </mxCell>
        <mxCell id="IWSV0h7KsMsJ5lvwP99l-123" value="" style="html=1;points=[[0,0,0,0,5],[0,1,0,0,-5],[1,0,0,0,5],[1,1,0,0,-5]];perimeter=orthogonalPerimeter;outlineConnect=0;targetShapes=umlLifeline;portConstraint=eastwest;newEdgeStyle={&quot;curved&quot;:0,&quot;rounded&quot;:0};" vertex="1" parent="IWSV0h7KsMsJ5lvwP99l-119">
          <mxGeometry x="45" y="128.98" width="10" height="220" as="geometry" />
        </mxCell>
        <mxCell id="IWSV0h7KsMsJ5lvwP99l-124" value="" style="html=1;points=[[0,0,0,0,5],[0,1,0,0,-5],[1,0,0,0,5],[1,1,0,0,-5]];perimeter=orthogonalPerimeter;outlineConnect=0;targetShapes=umlLifeline;portConstraint=eastwest;newEdgeStyle={&quot;curved&quot;:0,&quot;rounded&quot;:0};" vertex="1" parent="IWSV0h7KsMsJ5lvwP99l-119">
          <mxGeometry x="45" y="718.98" width="10" height="230" as="geometry" />
        </mxCell>
        <mxCell id="IWSV0h7KsMsJ5lvwP99l-125" value="" style="html=1;points=[[0,0,0,0,5],[0,1,0,0,-5],[1,0,0,0,5],[1,1,0,0,-5]];perimeter=orthogonalPerimeter;outlineConnect=0;targetShapes=umlLifeline;portConstraint=eastwest;newEdgeStyle={&quot;curved&quot;:0,&quot;rounded&quot;:0};" vertex="1" parent="IWSV0h7KsMsJ5lvwP99l-119">
          <mxGeometry x="45" y="1430" width="10" height="200.01" as="geometry" />
        </mxCell>
        <mxCell id="IWSV0h7KsMsJ5lvwP99l-126" value="HandleRequest()&lt;div&gt;&lt;div style=&quot;font-size: 10px;&quot;&gt;&lt;div style=&quot;font-size: 10px;&quot;&gt;return: SectionWithPriceRange[]&lt;/div&gt;&lt;/div&gt;&lt;/div&gt;" style="endArrow=block;endFill=1;html=1;edgeStyle=orthogonalEdgeStyle;align=left;verticalAlign=top;rounded=0;fontSize=10;" edge="1" parent="1" source="IWSV0h7KsMsJ5lvwP99l-123" target="IWSV0h7KsMsJ5lvwP99l-114">
          <mxGeometry x="-1" relative="1" as="geometry">
            <mxPoint x="125" y="228.98000000000002" as="sourcePoint" />
            <mxPoint x="350" y="229.98000000000002" as="targetPoint" />
            <Array as="points">
              <mxPoint x="330" y="230" />
              <mxPoint x="330" y="230" />
            </Array>
          </mxGeometry>
        </mxCell>
        <mxCell id="IWSV0h7KsMsJ5lvwP99l-127" value="" style="group" vertex="1" connectable="0" parent="1">
          <mxGeometry x="-70" y="80" width="90" height="1800" as="geometry" />
        </mxCell>
        <mxCell id="IWSV0h7KsMsJ5lvwP99l-128" value="&lt;div&gt;Payment&lt;/div&gt;&lt;div&gt;Endpoints&lt;/div&gt;" style="shape=umlBoundary;whiteSpace=wrap;html=1;" vertex="1" parent="IWSV0h7KsMsJ5lvwP99l-127">
          <mxGeometry x="-10" width="100" height="85.87241379310346" as="geometry" />
        </mxCell>
        <mxCell id="IWSV0h7KsMsJ5lvwP99l-129" value="" style="endArrow=none;dashed=1;html=1;strokeWidth=1;rounded=0;strokeColor=default;entryX=0.501;entryY=1.021;entryDx=0;entryDy=0;entryPerimeter=0;" edge="1" parent="IWSV0h7KsMsJ5lvwP99l-127" target="IWSV0h7KsMsJ5lvwP99l-128">
          <mxGeometry width="50" height="50" relative="1" as="geometry">
            <mxPoint x="40" y="1800" as="sourcePoint" />
            <mxPoint x="42.5" y="150.2590876015685" as="targetPoint" />
          </mxGeometry>
        </mxCell>
        <mxCell id="IWSV0h7KsMsJ5lvwP99l-130" value="" style="html=1;points=[[0,0,0,0,5],[0,1,0,0,-5],[1,0,0,0,5],[1,1,0,0,-5]];perimeter=orthogonalPerimeter;outlineConnect=0;targetShapes=umlLifeline;portConstraint=eastwest;newEdgeStyle={&quot;curved&quot;:0,&quot;rounded&quot;:0};" vertex="1" parent="IWSV0h7KsMsJ5lvwP99l-127">
          <mxGeometry x="35" y="1450" width="10" height="290" as="geometry" />
        </mxCell>
        <mxCell id="IWSV0h7KsMsJ5lvwP99l-131" value="" style="html=1;points=[[0,0,0,0,5],[0,1,0,0,-5],[1,0,0,0,5],[1,1,0,0,-5]];perimeter=orthogonalPerimeter;outlineConnect=0;targetShapes=umlLifeline;portConstraint=eastwest;newEdgeStyle={&quot;curved&quot;:0,&quot;rounded&quot;:0};" vertex="1" parent="IWSV0h7KsMsJ5lvwP99l-127">
          <mxGeometry x="40" y="1679.97" width="10" height="40" as="geometry" />
        </mxCell>
        <mxCell id="IWSV0h7KsMsJ5lvwP99l-132" value="GenerateResource()" style="html=1;align=left;spacingLeft=2;endArrow=block;rounded=0;edgeStyle=orthogonalEdgeStyle;curved=0;rounded=0;fontSize=8;" edge="1" parent="IWSV0h7KsMsJ5lvwP99l-127" target="IWSV0h7KsMsJ5lvwP99l-131">
          <mxGeometry x="-0.0005" relative="1" as="geometry">
            <mxPoint x="45" y="1670.004482758621" as="sourcePoint" />
            <Array as="points">
              <mxPoint x="80" y="1669.97" />
              <mxPoint x="80" y="1699.97" />
            </Array>
            <mxPoint as="offset" />
          </mxGeometry>
        </mxCell>
        <mxCell id="IWSV0h7KsMsJ5lvwP99l-133" value="payments/{payment_id}/complete&lt;div&gt;return PaymentResultResource&lt;/div&gt;" style="endArrow=block;endFill=1;html=1;edgeStyle=orthogonalEdgeStyle;align=left;verticalAlign=top;rounded=0;fontSize=10;" edge="1" parent="1" source="IWSV0h7KsMsJ5lvwP99l-4" target="IWSV0h7KsMsJ5lvwP99l-130">
          <mxGeometry x="-1" relative="1" as="geometry">
            <mxPoint x="-425" y="1530" as="sourcePoint" />
            <mxPoint x="-60" y="1530" as="targetPoint" />
            <Array as="points">
              <mxPoint x="-160" y="1530" />
              <mxPoint x="-160" y="1530" />
            </Array>
            <mxPoint as="offset" />
          </mxGeometry>
        </mxCell>
        <mxCell id="IWSV0h7KsMsJ5lvwP99l-134" value="POST" style="text;html=1;align=left;verticalAlign=middle;resizable=0;points=[];autosize=1;strokeColor=none;fillColor=none;fontSize=10;spacing=1;" vertex="1" parent="1">
          <mxGeometry x="-519.5" y="1510" width="50" height="20" as="geometry" />
        </mxCell>
        <mxCell id="IWSV0h7KsMsJ5lvwP99l-135" value="Send(CompletePayment)&lt;div&gt;return: PaymentId&lt;/div&gt;" style="endArrow=block;endFill=1;html=1;edgeStyle=orthogonalEdgeStyle;align=left;verticalAlign=top;rounded=0;fontSize=10;" edge="1" parent="1" source="IWSV0h7KsMsJ5lvwP99l-130" target="IWSV0h7KsMsJ5lvwP99l-125">
          <mxGeometry x="-1" relative="1" as="geometry">
            <mxPoint x="-100" y="1560" as="sourcePoint" />
            <mxPoint x="220" y="1560" as="targetPoint" />
            <Array as="points">
              <mxPoint x="120" y="1530" />
              <mxPoint x="120" y="1530" />
            </Array>
          </mxGeometry>
        </mxCell>
        <mxCell id="IWSV0h7KsMsJ5lvwP99l-136" value="PaymentCompleteHandler" style="shape=umlLifeline;perimeter=lifelinePerimeter;whiteSpace=wrap;html=1;container=1;dropTarget=0;collapsible=0;recursiveResize=0;outlineConnect=0;portConstraint=eastwest;newEdgeStyle={&quot;curved&quot;:0,&quot;rounded&quot;:0};" vertex="1" parent="1">
          <mxGeometry x="1060" y="100.01" width="150" height="1779.99" as="geometry" />
        </mxCell>
        <mxCell id="IWSV0h7KsMsJ5lvwP99l-137" value="" style="html=1;points=[[0,0,0,0,5],[0,1,0,0,-5],[1,0,0,0,5],[1,1,0,0,-5]];perimeter=orthogonalPerimeter;outlineConnect=0;targetShapes=umlLifeline;portConstraint=eastwest;newEdgeStyle={&quot;curved&quot;:0,&quot;rounded&quot;:0};" vertex="1" parent="IWSV0h7KsMsJ5lvwP99l-136">
          <mxGeometry x="70" y="1429.99" width="10" height="200.01" as="geometry" />
        </mxCell>
        <mxCell id="IWSV0h7KsMsJ5lvwP99l-138" value="HandleRequest()&lt;div&gt;&lt;div style=&quot;font-size: 10px;&quot;&gt;&lt;div style=&quot;font-size: 10px;&quot;&gt;return: PaymentId&lt;/div&gt;&lt;/div&gt;&lt;/div&gt;" style="endArrow=block;endFill=1;html=1;edgeStyle=orthogonalEdgeStyle;align=left;verticalAlign=top;rounded=0;fontSize=10;" edge="1" parent="1" source="IWSV0h7KsMsJ5lvwP99l-125" target="IWSV0h7KsMsJ5lvwP99l-137">
          <mxGeometry x="-1" relative="1" as="geometry">
            <mxPoint x="300" y="1540" as="sourcePoint" />
            <mxPoint x="1015" y="1540" as="targetPoint" />
            <Array as="points">
              <mxPoint x="670" y="1530" />
              <mxPoint x="670" y="1530" />
            </Array>
          </mxGeometry>
        </mxCell>
        <mxCell id="IWSV0h7KsMsJ5lvwP99l-139" value="" style="endArrow=block;endFill=1;html=1;edgeStyle=orthogonalEdgeStyle;align=left;verticalAlign=top;rounded=0;fontSize=10;" edge="1" parent="1" source="IWSV0h7KsMsJ5lvwP99l-137" target="IWSV0h7KsMsJ5lvwP99l-15">
          <mxGeometry x="-1" relative="1" as="geometry">
            <mxPoint x="990" y="1490" as="sourcePoint" />
            <mxPoint x="1450" y="1490" as="targetPoint" />
            <Array as="points">
              <mxPoint x="1260" y="1530" />
              <mxPoint x="1260" y="1530" />
            </Array>
          </mxGeometry>
        </mxCell>
        <mxCell id="IWSV0h7KsMsJ5lvwP99l-140" value="Get seat ids associated with the payment" style="text;html=1;align=left;verticalAlign=middle;resizable=0;points=[];autosize=1;strokeColor=none;fillColor=none;spacing=1;fontSize=10;" vertex="1" parent="1">
          <mxGeometry x="1145" y="1510" width="200" height="20" as="geometry" />
        </mxCell>
        <mxCell id="IWSV0h7KsMsJ5lvwP99l-141" value="" style="html=1;verticalAlign=bottom;endArrow=open;dashed=1;endSize=8;curved=0;rounded=0;" edge="1" parent="1" source="IWSV0h7KsMsJ5lvwP99l-15" target="IWSV0h7KsMsJ5lvwP99l-137">
          <mxGeometry relative="1" as="geometry">
            <mxPoint x="1490" y="1580" as="sourcePoint" />
            <mxPoint x="1030" y="1581" as="targetPoint" />
            <Array as="points">
              <mxPoint x="1320" y="1570" />
              <mxPoint x="1200" y="1570" />
              <mxPoint x="1170" y="1570" />
            </Array>
          </mxGeometry>
        </mxCell>
        <mxCell id="IWSV0h7KsMsJ5lvwP99l-142" value="&amp;lt;seatId[]&amp;gt;" style="edgeLabel;html=1;align=center;verticalAlign=middle;resizable=0;points=[];fontSize=10;" vertex="1" connectable="0" parent="IWSV0h7KsMsJ5lvwP99l-141">
          <mxGeometry x="0.0731" relative="1" as="geometry">
            <mxPoint as="offset" />
          </mxGeometry>
        </mxCell>
        <mxCell id="IWSV0h7KsMsJ5lvwP99l-143" value="Move seats associated with payment to sold state" style="text;html=1;align=left;verticalAlign=middle;resizable=0;points=[];autosize=1;strokeColor=none;fillColor=none;fontSize=10;spacing=1;" vertex="1" parent="1">
          <mxGeometry x="1145" y="1580" width="240" height="20" as="geometry" />
        </mxCell>
        <mxCell id="IWSV0h7KsMsJ5lvwP99l-144" value="" style="endArrow=block;endFill=1;html=1;edgeStyle=orthogonalEdgeStyle;align=left;verticalAlign=top;rounded=0;fontSize=10;" edge="1" parent="1" source="IWSV0h7KsMsJ5lvwP99l-137" target="IWSV0h7KsMsJ5lvwP99l-145">
          <mxGeometry x="-1" relative="1" as="geometry">
            <mxPoint x="1015" y="1620" as="sourcePoint" />
            <mxPoint x="1475" y="1620" as="targetPoint" />
            <Array as="points">
              <mxPoint x="1260" y="1600" />
              <mxPoint x="1260" y="1600" />
            </Array>
          </mxGeometry>
        </mxCell>
        <mxCell id="IWSV0h7KsMsJ5lvwP99l-145" value="" style="html=1;points=[[0,0,0,0,5],[0,1,0,0,-5],[1,0,0,0,5],[1,1,0,0,-5]];perimeter=orthogonalPerimeter;outlineConnect=0;targetShapes=umlLifeline;portConstraint=eastwest;newEdgeStyle={&quot;curved&quot;:0,&quot;rounded&quot;:0};" vertex="1" parent="1">
          <mxGeometry x="1370" y="1600" width="10" height="40" as="geometry" />
        </mxCell>
        <mxCell id="IWSV0h7KsMsJ5lvwP99l-146" value="" style="html=1;verticalAlign=bottom;endArrow=open;dashed=1;endSize=8;curved=0;rounded=0;" edge="1" parent="1" source="IWSV0h7KsMsJ5lvwP99l-145" target="IWSV0h7KsMsJ5lvwP99l-137">
          <mxGeometry relative="1" as="geometry">
            <mxPoint x="1370" y="1650" as="sourcePoint" />
            <mxPoint x="1145" y="1651" as="targetPoint" />
            <Array as="points">
              <mxPoint x="1320" y="1640" />
              <mxPoint x="1200" y="1640" />
              <mxPoint x="1160" y="1640" />
            </Array>
          </mxGeometry>
        </mxCell>
        <mxCell id="IWSV0h7KsMsJ5lvwP99l-147" value="&amp;lt;updatedCount&amp;gt;" style="edgeLabel;html=1;align=center;verticalAlign=middle;resizable=0;points=[];fontSize=10;" vertex="1" connectable="0" parent="IWSV0h7KsMsJ5lvwP99l-146">
          <mxGeometry x="0.0731" relative="1" as="geometry">
            <mxPoint as="offset" />
          </mxGeometry>
        </mxCell>
        <mxCell id="IWSV0h7KsMsJ5lvwP99l-148" value="" style="endArrow=block;endFill=1;html=1;edgeStyle=orthogonalEdgeStyle;align=left;verticalAlign=top;rounded=0;fontSize=10;" edge="1" parent="1" source="IWSV0h7KsMsJ5lvwP99l-137" target="IWSV0h7KsMsJ5lvwP99l-16">
          <mxGeometry x="-1" relative="1" as="geometry">
            <mxPoint x="1152.5" y="1650" as="sourcePoint" />
            <mxPoint x="1377.5" y="1650" as="targetPoint" />
            <Array as="points">
              <mxPoint x="1340" y="1670" />
              <mxPoint x="1340" y="1670" />
            </Array>
          </mxGeometry>
        </mxCell>
        <mxCell id="IWSV0h7KsMsJ5lvwP99l-149" value="Complete payment" style="text;html=1;align=left;verticalAlign=middle;resizable=0;points=[];autosize=1;strokeColor=none;fillColor=none;fontSize=10;spacing=1;" vertex="1" parent="1">
          <mxGeometry x="1145" y="1650" width="110" height="20" as="geometry" />
        </mxCell>
        <mxCell id="IWSV0h7KsMsJ5lvwP99l-150" value="" style="html=1;verticalAlign=bottom;endArrow=open;dashed=1;endSize=8;curved=0;rounded=0;" edge="1" parent="1" source="IWSV0h7KsMsJ5lvwP99l-16" target="IWSV0h7KsMsJ5lvwP99l-137">
          <mxGeometry relative="1" as="geometry">
            <mxPoint x="1377.5" y="1720" as="sourcePoint" />
            <mxPoint x="1152.5" y="1720" as="targetPoint" />
            <Array as="points">
              <mxPoint x="1328" y="1710" />
              <mxPoint x="1170" y="1710" />
            </Array>
          </mxGeometry>
        </mxCell>
        <mxCell id="IWSV0h7KsMsJ5lvwP99l-151" value="&amp;lt;updatedCount&amp;gt;" style="edgeLabel;html=1;align=center;verticalAlign=middle;resizable=0;points=[];fontSize=10;" vertex="1" connectable="0" parent="IWSV0h7KsMsJ5lvwP99l-150">
          <mxGeometry x="0.0731" relative="1" as="geometry">
            <mxPoint as="offset" />
          </mxGeometry>
        </mxCell>
        <mxCell id="IWSV0h7KsMsJ5lvwP99l-152" value="" style="html=1;verticalAlign=bottom;endArrow=open;dashed=1;endSize=8;curved=0;rounded=0;" edge="1" parent="1" source="IWSV0h7KsMsJ5lvwP99l-137" target="IWSV0h7KsMsJ5lvwP99l-125">
          <mxGeometry relative="1" as="geometry">
            <mxPoint x="995" y="1730" as="sourcePoint" />
            <mxPoint x="280" y="1730" as="targetPoint" />
            <Array as="points">
              <mxPoint x="475" y="1730" />
            </Array>
          </mxGeometry>
        </mxCell>
        <mxCell id="IWSV0h7KsMsJ5lvwP99l-153" value="" style="html=1;verticalAlign=bottom;endArrow=open;dashed=1;endSize=8;curved=0;rounded=0;" edge="1" parent="1" source="IWSV0h7KsMsJ5lvwP99l-125" target="IWSV0h7KsMsJ5lvwP99l-130">
          <mxGeometry relative="1" as="geometry">
            <mxPoint x="219" y="1820" as="sourcePoint" />
            <mxPoint x="-100" y="1820" as="targetPoint" />
            <Array as="points">
              <mxPoint x="30" y="1730" />
            </Array>
          </mxGeometry>
        </mxCell>
        <mxCell id="IWSV0h7KsMsJ5lvwP99l-154" value="" style="html=1;verticalAlign=bottom;endArrow=open;dashed=1;endSize=8;curved=0;rounded=0;" edge="1" parent="1" source="IWSV0h7KsMsJ5lvwP99l-130" target="IWSV0h7KsMsJ5lvwP99l-4">
          <mxGeometry relative="1" as="geometry">
            <mxPoint x="-87.5" y="1820" as="sourcePoint" />
            <mxPoint x="-452.5" y="1820" as="targetPoint" />
            <Array as="points">
              <mxPoint x="-202.5" y="1820" />
            </Array>
          </mxGeometry>
        </mxCell>
      </root>
    </mxGraphModel>
  </diagram>
  <diagram id="NgVwtGbv60WhnP4Tf_70" name="HighLevelDesignDiagram">
    <mxGraphModel dx="1722" dy="924" grid="1" gridSize="10" guides="1" tooltips="1" connect="1" arrows="1" fold="1" page="1" pageScale="1" pageWidth="850" pageHeight="1100" math="0" shadow="0">
      <root>
        <mxCell id="0" />
        <mxCell id="1" parent="0" />
        <mxCell id="-UEpt8BWzdxFJThGPudJ-1" value="" style="group;labelBackgroundColor=none;fontColor=#46495D;" vertex="1" connectable="0" parent="1">
          <mxGeometry x="1185" y="380" width="190" height="227" as="geometry" />
        </mxCell>
        <mxCell id="-UEpt8BWzdxFJThGPudJ-2" value="" style="group;labelBackgroundColor=none;fontColor=#46495D;" vertex="1" connectable="0" parent="-UEpt8BWzdxFJThGPudJ-1">
          <mxGeometry y="37" width="190" height="190" as="geometry" />
        </mxCell>
        <mxCell id="-UEpt8BWzdxFJThGPudJ-3" value="" style="ellipse;whiteSpace=wrap;html=1;aspect=fixed;labelBackgroundColor=none;fillColor=#B2C9AB;strokeColor=#788AA3;fontColor=#46495D;" vertex="1" parent="-UEpt8BWzdxFJThGPudJ-2">
          <mxGeometry width="190" height="190" as="geometry" />
        </mxCell>
        <mxCell id="-UEpt8BWzdxFJThGPudJ-4" value="Node 1" style="ellipse;whiteSpace=wrap;html=1;aspect=fixed;labelBackgroundColor=none;fillColor=#dae8fc;strokeColor=#6c8ebf;" vertex="1" parent="-UEpt8BWzdxFJThGPudJ-2">
          <mxGeometry x="30" y="15" width="60" height="60" as="geometry" />
        </mxCell>
        <mxCell id="-UEpt8BWzdxFJThGPudJ-5" value="Node 2" style="ellipse;whiteSpace=wrap;html=1;aspect=fixed;labelBackgroundColor=none;fillColor=#dae8fc;strokeColor=#6c8ebf;" vertex="1" parent="-UEpt8BWzdxFJThGPudJ-2">
          <mxGeometry x="120" y="35" width="60" height="60" as="geometry" />
        </mxCell>
        <mxCell id="-UEpt8BWzdxFJThGPudJ-6" value="Node 3" style="ellipse;whiteSpace=wrap;html=1;aspect=fixed;labelBackgroundColor=none;fillColor=#dae8fc;strokeColor=#6c8ebf;" vertex="1" parent="-UEpt8BWzdxFJThGPudJ-2">
          <mxGeometry x="55" y="125" width="60" height="60" as="geometry" />
        </mxCell>
        <mxCell id="-UEpt8BWzdxFJThGPudJ-7" value="Nodes to process notifications" style="text;html=1;align=center;verticalAlign=middle;resizable=0;points=[];autosize=1;strokeColor=none;fillColor=none;labelBackgroundColor=none;fontColor=#46495D;" vertex="1" parent="-UEpt8BWzdxFJThGPudJ-1">
          <mxGeometry x="5" width="180" height="30" as="geometry" />
        </mxCell>
        <mxCell id="-UEpt8BWzdxFJThGPudJ-8" value="" style="group;labelBackgroundColor=none;fontColor=#46495D;" vertex="1" connectable="0" parent="1">
          <mxGeometry x="855" y="452" width="310" height="90" as="geometry" />
        </mxCell>
        <mxCell id="-UEpt8BWzdxFJThGPudJ-9" value="" style="group;labelBackgroundColor=none;fontColor=#46495D;" vertex="1" connectable="0" parent="-UEpt8BWzdxFJThGPudJ-8">
          <mxGeometry y="30" width="310" height="60" as="geometry" />
        </mxCell>
        <mxCell id="-UEpt8BWzdxFJThGPudJ-10" value="Queue to notify user" style="shape=process;whiteSpace=wrap;html=1;backgroundOutline=1;labelBackgroundColor=none;fillColor=#e3c800;strokeColor=#B09500;fontColor=#000000;" vertex="1" parent="-UEpt8BWzdxFJThGPudJ-9">
          <mxGeometry x="160" width="150" height="60" as="geometry" />
        </mxCell>
        <mxCell id="-UEpt8BWzdxFJThGPudJ-11" value="Message queue system" style="text;html=1;align=center;verticalAlign=middle;resizable=0;points=[];autosize=1;strokeColor=none;fillColor=none;labelBackgroundColor=none;fontColor=#46495D;" vertex="1" parent="-UEpt8BWzdxFJThGPudJ-8">
          <mxGeometry x="160" width="150" height="30" as="geometry" />
        </mxCell>
        <mxCell id="-UEpt8BWzdxFJThGPudJ-12" value="" style="edgeStyle=orthogonalEdgeStyle;rounded=0;orthogonalLoop=1;jettySize=auto;html=1;entryX=1;entryY=0.5;entryDx=0;entryDy=0;labelBackgroundColor=none;strokeColor=#121212;fontColor=default;endArrow=none;endFill=0;startArrow=block;startFill=1;" edge="1" parent="1" source="-UEpt8BWzdxFJThGPudJ-3" target="-UEpt8BWzdxFJThGPudJ-10">
          <mxGeometry relative="1" as="geometry" />
        </mxCell>
        <mxCell id="-UEpt8BWzdxFJThGPudJ-13" value="" style="group" vertex="1" connectable="0" parent="1">
          <mxGeometry x="1175" y="684" width="200" height="208" as="geometry" />
        </mxCell>
        <mxCell id="-UEpt8BWzdxFJThGPudJ-14" value="POSTGRES" style="shape=cylinder3;whiteSpace=wrap;html=1;boundedLbl=1;backgroundOutline=1;size=12.920958201090514;labelBackgroundColor=none;fillColor=#E5A68C;strokeColor=#788AA3;fontColor=#46495D;" vertex="1" parent="-UEpt8BWzdxFJThGPudJ-13">
          <mxGeometry x="35" y="38" width="130" height="170" as="geometry" />
        </mxCell>
        <mxCell id="-UEpt8BWzdxFJThGPudJ-15" value="Relational Data storage&lt;div style=&quot;font-size: 17px;&quot;&gt;&lt;br style=&quot;font-size: 17px;&quot;&gt;&lt;/div&gt;" style="text;html=1;align=center;verticalAlign=middle;resizable=0;points=[];autosize=1;strokeColor=none;fillColor=none;fontSize=17;labelBackgroundColor=none;fontColor=#46495D;" vertex="1" parent="-UEpt8BWzdxFJThGPudJ-13">
          <mxGeometry width="200" height="50" as="geometry" />
        </mxCell>
        <mxCell id="-UEpt8BWzdxFJThGPudJ-16" value="" style="edgeStyle=orthogonalEdgeStyle;rounded=0;orthogonalLoop=1;jettySize=auto;html=1;" edge="1" parent="1" source="-UEpt8BWzdxFJThGPudJ-17" target="-UEpt8BWzdxFJThGPudJ-30">
          <mxGeometry relative="1" as="geometry" />
        </mxCell>
        <mxCell id="-UEpt8BWzdxFJThGPudJ-17" value="Payment UI" style="rounded=0;whiteSpace=wrap;html=1;fillColor=none;" vertex="1" parent="1">
          <mxGeometry x="425" y="822" width="120" height="60" as="geometry" />
        </mxCell>
        <mxCell id="-UEpt8BWzdxFJThGPudJ-18" value="" style="edgeStyle=orthogonalEdgeStyle;rounded=0;orthogonalLoop=1;jettySize=auto;html=1;" edge="1" parent="1" source="-UEpt8BWzdxFJThGPudJ-19" target="-UEpt8BWzdxFJThGPudJ-27">
          <mxGeometry relative="1" as="geometry" />
        </mxCell>
        <mxCell id="-UEpt8BWzdxFJThGPudJ-19" value="Order UI" style="rounded=0;whiteSpace=wrap;html=1;fillColor=none;" vertex="1" parent="1">
          <mxGeometry x="425" y="738" width="120" height="60" as="geometry" />
        </mxCell>
        <mxCell id="-UEpt8BWzdxFJThGPudJ-20" value="" style="edgeStyle=orthogonalEdgeStyle;rounded=0;orthogonalLoop=1;jettySize=auto;html=1;" edge="1" parent="1" source="-UEpt8BWzdxFJThGPudJ-21" target="-UEpt8BWzdxFJThGPudJ-29">
          <mxGeometry relative="1" as="geometry">
            <Array as="points">
              <mxPoint x="575" y="652" />
              <mxPoint x="575" y="652" />
            </Array>
          </mxGeometry>
        </mxCell>
        <mxCell id="-UEpt8BWzdxFJThGPudJ-21" value="Event UI" style="rounded=0;whiteSpace=wrap;html=1;fillColor=none;verticalAlign=top;" vertex="1" parent="1">
          <mxGeometry x="425" y="622" width="120" height="80" as="geometry" />
        </mxCell>
        <mxCell id="-UEpt8BWzdxFJThGPudJ-22" value="" style="edgeStyle=orthogonalEdgeStyle;rounded=0;orthogonalLoop=1;jettySize=auto;html=1;" edge="1" parent="1" source="-UEpt8BWzdxFJThGPudJ-23" target="-UEpt8BWzdxFJThGPudJ-28">
          <mxGeometry relative="1" as="geometry" />
        </mxCell>
        <mxCell id="-UEpt8BWzdxFJThGPudJ-23" value="Venue UI" style="rounded=0;whiteSpace=wrap;html=1;fillColor=none;" vertex="1" parent="1">
          <mxGeometry x="425" y="522" width="120" height="60" as="geometry" />
        </mxCell>
        <mxCell id="-UEpt8BWzdxFJThGPudJ-24" value="" style="group" vertex="1" connectable="0" parent="1">
          <mxGeometry x="625" y="462" width="280" height="430" as="geometry" />
        </mxCell>
        <mxCell id="-UEpt8BWzdxFJThGPudJ-25" value="" style="rounded=0;whiteSpace=wrap;html=1;fillColor=none;dashed=1;" vertex="1" parent="-UEpt8BWzdxFJThGPudJ-24">
          <mxGeometry y="40" width="170" height="390" as="geometry" />
        </mxCell>
        <mxCell id="-UEpt8BWzdxFJThGPudJ-26" value="&lt;div style=&quot;font-size: 17px;&quot;&gt;Backend Nodes&lt;/div&gt;" style="text;html=1;align=center;verticalAlign=middle;resizable=0;points=[];autosize=1;strokeColor=none;fillColor=none;labelBackgroundColor=none;fontColor=#46495D;" vertex="1" parent="-UEpt8BWzdxFJThGPudJ-24">
          <mxGeometry x="9.996896551724149" width="140" height="30" as="geometry" />
        </mxCell>
        <mxCell id="-UEpt8BWzdxFJThGPudJ-27" value="Order API" style="rounded=0;whiteSpace=wrap;html=1;fillColor=none;" vertex="1" parent="-UEpt8BWzdxFJThGPudJ-24">
          <mxGeometry x="20" y="276" width="120" height="60" as="geometry" />
        </mxCell>
        <mxCell id="-UEpt8BWzdxFJThGPudJ-28" value="Venue API" style="rounded=0;whiteSpace=wrap;html=1;fillColor=none;" vertex="1" parent="-UEpt8BWzdxFJThGPudJ-24">
          <mxGeometry x="20" y="60" width="120" height="60" as="geometry" />
        </mxCell>
        <mxCell id="-UEpt8BWzdxFJThGPudJ-29" value="Event API" style="rounded=0;whiteSpace=wrap;html=1;fillColor=none;verticalAlign=middle;" vertex="1" parent="-UEpt8BWzdxFJThGPudJ-24">
          <mxGeometry x="20" y="160" width="120" height="60" as="geometry" />
        </mxCell>
        <mxCell id="-UEpt8BWzdxFJThGPudJ-30" value="Payment API" style="rounded=0;whiteSpace=wrap;html=1;fillColor=none;" vertex="1" parent="-UEpt8BWzdxFJThGPudJ-24">
          <mxGeometry x="20" y="360" width="120" height="60" as="geometry" />
        </mxCell>
        <mxCell id="-UEpt8BWzdxFJThGPudJ-31" value="cache control" style="rounded=0;whiteSpace=wrap;html=1;" vertex="1" parent="-UEpt8BWzdxFJThGPudJ-24">
          <mxGeometry x="70" y="240" width="80" height="20" as="geometry" />
        </mxCell>
        <mxCell id="-UEpt8BWzdxFJThGPudJ-32" value="" style="endArrow=none;html=1;rounded=0;exitX=0.5;exitY=0;exitDx=0;exitDy=0;entryX=0.384;entryY=1.031;entryDx=0;entryDy=0;entryPerimeter=0;startArrow=classic;startFill=1;" edge="1" parent="-UEpt8BWzdxFJThGPudJ-24" source="-UEpt8BWzdxFJThGPudJ-27" target="-UEpt8BWzdxFJThGPudJ-31">
          <mxGeometry width="50" height="50" relative="1" as="geometry">
            <mxPoint x="60" y="280" as="sourcePoint" />
            <mxPoint x="110" y="230" as="targetPoint" />
          </mxGeometry>
        </mxCell>
        <mxCell id="-UEpt8BWzdxFJThGPudJ-33" value="" style="endArrow=none;html=1;rounded=0;exitX=0.5;exitY=1;exitDx=0;exitDy=0;entryX=0.408;entryY=-0.011;entryDx=0;entryDy=0;entryPerimeter=0;startArrow=classic;startFill=1;" edge="1" parent="-UEpt8BWzdxFJThGPudJ-24" source="-UEpt8BWzdxFJThGPudJ-29" target="-UEpt8BWzdxFJThGPudJ-31">
          <mxGeometry width="50" height="50" relative="1" as="geometry">
            <mxPoint x="60" y="280" as="sourcePoint" />
            <mxPoint x="110" y="230" as="targetPoint" />
          </mxGeometry>
        </mxCell>
        <mxCell id="-UEpt8BWzdxFJThGPudJ-34" value="" style="group" vertex="1" connectable="0" parent="1">
          <mxGeometry x="485" y="642" width="70" height="60" as="geometry" />
        </mxCell>
        <mxCell id="-UEpt8BWzdxFJThGPudJ-35" value="" style="shape=cylinder3;whiteSpace=wrap;html=1;boundedLbl=1;backgroundOutline=1;size=15;labelBackgroundColor=none;fillColor=#E5A68C;strokeColor=#B20000;fontColor=#ffffff;" vertex="1" parent="-UEpt8BWzdxFJThGPudJ-34">
          <mxGeometry x="11.200000000000001" y="16.363636363636363" width="33.6" height="43.63636363636363" as="geometry" />
        </mxCell>
        <mxCell id="-UEpt8BWzdxFJThGPudJ-36" value="Cache" style="text;html=1;align=center;verticalAlign=middle;resizable=0;points=[];autosize=1;strokeColor=none;fillColor=none;labelBackgroundColor=none;fontColor=#46495D;fontSize=10;spacing=1;" vertex="1" parent="-UEpt8BWzdxFJThGPudJ-34">
          <mxGeometry x="3" width="50" height="20" as="geometry" />
        </mxCell>
        <mxCell id="-UEpt8BWzdxFJThGPudJ-37" style="edgeStyle=orthogonalEdgeStyle;rounded=0;orthogonalLoop=1;jettySize=auto;html=1;exitX=1;exitY=0.25;exitDx=0;exitDy=0;entryX=0;entryY=0.5;entryDx=0;entryDy=0;endArrow=open;endFill=0;startArrow=oval;startFill=1;" edge="1" parent="1" source="-UEpt8BWzdxFJThGPudJ-27" target="-UEpt8BWzdxFJThGPudJ-10">
          <mxGeometry relative="1" as="geometry">
            <Array as="points">
              <mxPoint x="765" y="752" />
              <mxPoint x="965" y="752" />
              <mxPoint x="965" y="512" />
            </Array>
          </mxGeometry>
        </mxCell>
        <mxCell id="-UEpt8BWzdxFJThGPudJ-38" style="edgeStyle=orthogonalEdgeStyle;rounded=0;orthogonalLoop=1;jettySize=auto;html=1;exitX=1;exitY=0.25;exitDx=0;exitDy=0;entryX=0;entryY=0.75;entryDx=0;entryDy=0;endArrow=open;endFill=0;startArrow=oval;startFill=1;" edge="1" parent="1" source="-UEpt8BWzdxFJThGPudJ-30" target="-UEpt8BWzdxFJThGPudJ-10">
          <mxGeometry relative="1" as="geometry">
            <Array as="points">
              <mxPoint x="985" y="837" />
              <mxPoint x="985" y="527" />
            </Array>
          </mxGeometry>
        </mxCell>
        <mxCell id="-UEpt8BWzdxFJThGPudJ-39" style="edgeStyle=orthogonalEdgeStyle;rounded=0;orthogonalLoop=1;jettySize=auto;html=1;entryX=0.013;entryY=0.77;entryDx=0;entryDy=0;entryPerimeter=0;endArrow=block;endFill=1;startArrow=oval;startFill=1;" edge="1" parent="1" source="-UEpt8BWzdxFJThGPudJ-25" target="-UEpt8BWzdxFJThGPudJ-14">
          <mxGeometry relative="1" as="geometry">
            <mxPoint x="906" y="853" as="sourcePoint" />
            <Array as="points">
              <mxPoint x="975" y="853" />
              <mxPoint x="975" y="853" />
            </Array>
          </mxGeometry>
        </mxCell>
      </root>
    </mxGraphModel>
  </diagram>
  <diagram id="37BSU2V6k6MQegHneIG8" name="SeatStateDiagram">
    <mxGraphModel dx="2066" dy="1109" grid="1" gridSize="10" guides="1" tooltips="1" connect="1" arrows="1" fold="1" page="1" pageScale="1" pageWidth="850" pageHeight="1100" math="0" shadow="0">
      <root>
        <mxCell id="0" />
        <mxCell id="1" parent="0" />
        <mxCell id="QYnvfjj_0ct5IQso8SjY-1" value="" style="group" vertex="1" connectable="0" parent="1">
          <mxGeometry x="460" y="495" width="830" height="300" as="geometry" />
        </mxCell>
        <mxCell id="QYnvfjj_0ct5IQso8SjY-2" value="" style="group;fontSize=10;" vertex="1" connectable="0" parent="QYnvfjj_0ct5IQso8SjY-1">
          <mxGeometry x="110" y="100" width="80" height="50" as="geometry" />
        </mxCell>
        <mxCell id="QYnvfjj_0ct5IQso8SjY-3" value="&lt;font style=&quot;font-size: 11px;&quot;&gt;&amp;nbsp; &amp;nbsp; &amp;nbsp; Available&lt;/font&gt;&lt;div style=&quot;font-size: 11px;&quot;&gt;&lt;font style=&quot;font-size: 11px;&quot;&gt;&lt;br&gt;&lt;/font&gt;&lt;/div&gt;&lt;div style=&quot;font-size: 11px;&quot;&gt;&lt;font style=&quot;font-size: 11px;&quot;&gt;&lt;br&gt;&lt;/font&gt;&lt;/div&gt;&lt;div style=&quot;font-size: 11px;&quot;&gt;&lt;font style=&quot;font-size: 11px;&quot;&gt;&lt;br&gt;&lt;/font&gt;&lt;/div&gt;" style="rounded=1;whiteSpace=wrap;html=1;align=left;arcSize=35;" vertex="1" parent="QYnvfjj_0ct5IQso8SjY-2">
          <mxGeometry width="80" height="50" as="geometry" />
        </mxCell>
        <mxCell id="QYnvfjj_0ct5IQso8SjY-4" value="" style="endArrow=none;html=1;rounded=0;exitX=0.017;exitY=0.248;exitDx=0;exitDy=0;entryX=0.986;entryY=0.242;entryDx=0;entryDy=0;entryPerimeter=0;exitPerimeter=0;" edge="1" parent="QYnvfjj_0ct5IQso8SjY-2" source="QYnvfjj_0ct5IQso8SjY-3" target="QYnvfjj_0ct5IQso8SjY-3">
          <mxGeometry width="50" height="50" relative="1" as="geometry">
            <mxPoint x="232" y="57.142857142857146" as="sourcePoint" />
            <mxPoint x="272" y="21.42857142857143" as="targetPoint" />
          </mxGeometry>
        </mxCell>
        <mxCell id="QYnvfjj_0ct5IQso8SjY-5" value="" style="group;fontSize=10;" vertex="1" connectable="0" parent="QYnvfjj_0ct5IQso8SjY-1">
          <mxGeometry x="320" y="100" width="80" height="50" as="geometry" />
        </mxCell>
        <mxCell id="QYnvfjj_0ct5IQso8SjY-6" value="&lt;font style=&quot;font-size: 11px;&quot;&gt;&amp;nbsp; &amp;nbsp; &amp;nbsp; Booked&lt;/font&gt;&lt;div style=&quot;font-size: 11px;&quot;&gt;&lt;br&gt;&lt;/div&gt;&lt;div style=&quot;font-size: 11px;&quot;&gt;&lt;font style=&quot;font-size: 11px;&quot;&gt;&lt;br&gt;&lt;/font&gt;&lt;/div&gt;&lt;div style=&quot;font-size: 11px;&quot;&gt;&lt;font style=&quot;font-size: 11px;&quot;&gt;&lt;br&gt;&lt;/font&gt;&lt;/div&gt;" style="rounded=1;whiteSpace=wrap;html=1;align=left;arcSize=35;" vertex="1" parent="QYnvfjj_0ct5IQso8SjY-5">
          <mxGeometry width="80" height="50" as="geometry" />
        </mxCell>
        <mxCell id="QYnvfjj_0ct5IQso8SjY-7" value="" style="endArrow=none;html=1;rounded=0;exitX=0.017;exitY=0.248;exitDx=0;exitDy=0;entryX=0.986;entryY=0.242;entryDx=0;entryDy=0;entryPerimeter=0;exitPerimeter=0;" edge="1" parent="QYnvfjj_0ct5IQso8SjY-5" source="QYnvfjj_0ct5IQso8SjY-6" target="QYnvfjj_0ct5IQso8SjY-6">
          <mxGeometry width="50" height="50" relative="1" as="geometry">
            <mxPoint x="232" y="57.142857142857146" as="sourcePoint" />
            <mxPoint x="272" y="21.42857142857143" as="targetPoint" />
          </mxGeometry>
        </mxCell>
        <mxCell id="QYnvfjj_0ct5IQso8SjY-8" value="" style="curved=1;endArrow=classic;html=1;rounded=0;exitX=1;exitY=0.5;exitDx=0;exitDy=0;entryX=0;entryY=0.5;entryDx=0;entryDy=0;" edge="1" parent="QYnvfjj_0ct5IQso8SjY-1" source="QYnvfjj_0ct5IQso8SjY-3" target="QYnvfjj_0ct5IQso8SjY-6">
          <mxGeometry width="50" height="50" relative="1" as="geometry">
            <mxPoint x="260" y="170" as="sourcePoint" />
            <mxPoint x="310" y="120" as="targetPoint" />
            <Array as="points">
              <mxPoint x="260" y="120" />
            </Array>
          </mxGeometry>
        </mxCell>
        <mxCell id="QYnvfjj_0ct5IQso8SjY-9" value="User books a seat" style="edgeLabel;html=1;align=center;verticalAlign=middle;resizable=0;points=[];" vertex="1" connectable="0" parent="QYnvfjj_0ct5IQso8SjY-8">
          <mxGeometry x="-0.2872" y="-1" relative="1" as="geometry">
            <mxPoint x="24" y="-3" as="offset" />
          </mxGeometry>
        </mxCell>
        <mxCell id="QYnvfjj_0ct5IQso8SjY-10" value="" style="curved=1;endArrow=classic;html=1;rounded=0;entryX=0.88;entryY=-0.008;entryDx=0;entryDy=0;entryPerimeter=0;exitX=0.835;exitY=-0.032;exitDx=0;exitDy=0;exitPerimeter=0;" edge="1" parent="QYnvfjj_0ct5IQso8SjY-1" source="QYnvfjj_0ct5IQso8SjY-6" target="QYnvfjj_0ct5IQso8SjY-3">
          <mxGeometry width="50" height="50" relative="1" as="geometry">
            <mxPoint x="335" y="60" as="sourcePoint" />
            <mxPoint x="385" y="10" as="targetPoint" />
            <Array as="points">
              <mxPoint x="385" y="60" />
              <mxPoint x="350" y="20" />
              <mxPoint x="210" y="30" />
            </Array>
          </mxGeometry>
        </mxCell>
        <mxCell id="QYnvfjj_0ct5IQso8SjY-11" value="User cancelled payment" style="edgeLabel;html=1;align=center;verticalAlign=middle;resizable=0;points=[];" vertex="1" connectable="0" parent="QYnvfjj_0ct5IQso8SjY-10">
          <mxGeometry x="-0.0416" y="1" relative="1" as="geometry">
            <mxPoint as="offset" />
          </mxGeometry>
        </mxCell>
        <mxCell id="QYnvfjj_0ct5IQso8SjY-12" value="" style="curved=1;endArrow=classic;html=1;rounded=0;entryX=0.75;entryY=1;entryDx=0;entryDy=0;exitX=0.5;exitY=1;exitDx=0;exitDy=0;" edge="1" parent="QYnvfjj_0ct5IQso8SjY-1" source="QYnvfjj_0ct5IQso8SjY-6" target="QYnvfjj_0ct5IQso8SjY-3">
          <mxGeometry width="50" height="50" relative="1" as="geometry">
            <mxPoint x="400" y="280" as="sourcePoint" />
            <mxPoint x="450" y="230" as="targetPoint" />
            <Array as="points">
              <mxPoint x="350" y="175" />
              <mxPoint x="330" y="190" />
              <mxPoint x="300" y="210" />
              <mxPoint x="180" y="200" />
            </Array>
          </mxGeometry>
        </mxCell>
        <mxCell id="QYnvfjj_0ct5IQso8SjY-13" value="Payment failed" style="edgeLabel;html=1;align=center;verticalAlign=middle;resizable=0;points=[];" vertex="1" connectable="0" parent="QYnvfjj_0ct5IQso8SjY-12">
          <mxGeometry x="0.1676" y="2" relative="1" as="geometry">
            <mxPoint x="39" as="offset" />
          </mxGeometry>
        </mxCell>
        <mxCell id="QYnvfjj_0ct5IQso8SjY-14" value="" style="group;fontSize=10;" vertex="1" connectable="0" parent="QYnvfjj_0ct5IQso8SjY-1">
          <mxGeometry x="500" y="100" width="80" height="50" as="geometry" />
        </mxCell>
        <mxCell id="QYnvfjj_0ct5IQso8SjY-15" value="&lt;font style=&quot;font-size: 11px;&quot;&gt;&amp;nbsp; &amp;nbsp; &amp;nbsp; &amp;nbsp; &amp;nbsp;Sold&lt;/font&gt;&lt;div style=&quot;font-size: 11px;&quot;&gt;&lt;br&gt;&lt;/div&gt;&lt;div style=&quot;font-size: 11px;&quot;&gt;&lt;font style=&quot;font-size: 11px;&quot;&gt;&lt;br&gt;&lt;/font&gt;&lt;/div&gt;&lt;div style=&quot;font-size: 11px;&quot;&gt;&lt;font style=&quot;font-size: 11px;&quot;&gt;&lt;br&gt;&lt;/font&gt;&lt;/div&gt;" style="rounded=1;whiteSpace=wrap;html=1;align=left;arcSize=35;" vertex="1" parent="QYnvfjj_0ct5IQso8SjY-14">
          <mxGeometry width="80" height="50" as="geometry" />
        </mxCell>
        <mxCell id="QYnvfjj_0ct5IQso8SjY-16" value="" style="endArrow=none;html=1;rounded=0;exitX=0.017;exitY=0.248;exitDx=0;exitDy=0;entryX=0.986;entryY=0.242;entryDx=0;entryDy=0;entryPerimeter=0;exitPerimeter=0;" edge="1" parent="QYnvfjj_0ct5IQso8SjY-14" source="QYnvfjj_0ct5IQso8SjY-15" target="QYnvfjj_0ct5IQso8SjY-15">
          <mxGeometry width="50" height="50" relative="1" as="geometry">
            <mxPoint x="232" y="57.142857142857146" as="sourcePoint" />
            <mxPoint x="272" y="21.42857142857143" as="targetPoint" />
          </mxGeometry>
        </mxCell>
        <mxCell id="QYnvfjj_0ct5IQso8SjY-17" value="" style="curved=1;endArrow=classic;html=1;rounded=0;exitX=1;exitY=0.5;exitDx=0;exitDy=0;entryX=0;entryY=0.5;entryDx=0;entryDy=0;" edge="1" parent="QYnvfjj_0ct5IQso8SjY-1" source="QYnvfjj_0ct5IQso8SjY-6" target="QYnvfjj_0ct5IQso8SjY-15">
          <mxGeometry width="50" height="50" relative="1" as="geometry">
            <mxPoint x="430" y="135" as="sourcePoint" />
            <mxPoint x="480" y="85" as="targetPoint" />
            <Array as="points">
              <mxPoint x="490" y="125" />
            </Array>
          </mxGeometry>
        </mxCell>
        <mxCell id="QYnvfjj_0ct5IQso8SjY-18" value="" style="ellipse;whiteSpace=wrap;html=1;aspect=fixed;" vertex="1" parent="1">
          <mxGeometry x="430" y="607.5" width="25" height="25" as="geometry" />
        </mxCell>
        <mxCell id="QYnvfjj_0ct5IQso8SjY-19" value="" style="curved=1;endArrow=classic;html=1;rounded=0;exitX=1;exitY=0.5;exitDx=0;exitDy=0;entryX=0;entryY=0.5;entryDx=0;entryDy=0;" edge="1" parent="1" source="QYnvfjj_0ct5IQso8SjY-18" target="QYnvfjj_0ct5IQso8SjY-3">
          <mxGeometry width="50" height="50" relative="1" as="geometry">
            <mxPoint x="670" y="620" as="sourcePoint" />
            <mxPoint x="720" y="570" as="targetPoint" />
            <Array as="points">
              <mxPoint x="540" y="620" />
            </Array>
          </mxGeometry>
        </mxCell>
        <mxCell id="QYnvfjj_0ct5IQso8SjY-20" value="Seat created" style="edgeLabel;html=1;align=center;verticalAlign=middle;resizable=0;points=[];" vertex="1" connectable="0" parent="QYnvfjj_0ct5IQso8SjY-19">
          <mxGeometry x="-0.2506" relative="1" as="geometry">
            <mxPoint as="offset" />
          </mxGeometry>
        </mxCell>
        <mxCell id="QYnvfjj_0ct5IQso8SjY-21" value="" style="ellipse;html=1;shape=endState;fillColor=#FFFFFF;strokeColor=#ff0000;" vertex="1" parent="1">
          <mxGeometry x="760" y="430" width="30" height="30" as="geometry" />
        </mxCell>
        <mxCell id="QYnvfjj_0ct5IQso8SjY-22" value="" style="curved=1;endArrow=classic;html=1;rounded=0;entryX=1;entryY=1;entryDx=0;entryDy=0;exitX=1;exitY=0.25;exitDx=0;exitDy=0;" edge="1" parent="1" source="QYnvfjj_0ct5IQso8SjY-6" target="QYnvfjj_0ct5IQso8SjY-21">
          <mxGeometry width="50" height="50" relative="1" as="geometry">
            <mxPoint x="800" y="685" as="sourcePoint" />
            <mxPoint x="890" y="757.5" as="targetPoint" />
            <Array as="points">
              <mxPoint x="880" y="610" />
              <mxPoint x="880" y="570" />
              <mxPoint x="880" y="520" />
              <mxPoint x="860" y="490" />
            </Array>
          </mxGeometry>
        </mxCell>
        <mxCell id="QYnvfjj_0ct5IQso8SjY-23" value="" style="curved=1;endArrow=classic;html=1;rounded=0;exitX=0.25;exitY=0;exitDx=0;exitDy=0;entryX=0;entryY=0.5;entryDx=0;entryDy=0;" edge="1" parent="1" source="QYnvfjj_0ct5IQso8SjY-3" target="QYnvfjj_0ct5IQso8SjY-21">
          <mxGeometry width="50" height="50" relative="1" as="geometry">
            <mxPoint x="660" y="560" as="sourcePoint" />
            <mxPoint x="710" y="510" as="targetPoint" />
            <Array as="points">
              <mxPoint x="600" y="550" />
              <mxPoint x="670" y="470" />
            </Array>
          </mxGeometry>
        </mxCell>
        <mxCell id="QYnvfjj_0ct5IQso8SjY-24" value="" style="curved=1;endArrow=classic;html=1;rounded=0;exitX=1;exitY=0.5;exitDx=0;exitDy=0;entryX=1;entryY=0;entryDx=0;entryDy=0;" edge="1" parent="1" source="QYnvfjj_0ct5IQso8SjY-15" target="QYnvfjj_0ct5IQso8SjY-21">
          <mxGeometry width="50" height="50" relative="1" as="geometry">
            <mxPoint x="1050" y="620" as="sourcePoint" />
            <mxPoint x="1100" y="570" as="targetPoint" />
            <Array as="points">
              <mxPoint x="1070" y="620" />
              <mxPoint x="1030" y="510" />
              <mxPoint x="860" y="420" />
            </Array>
          </mxGeometry>
        </mxCell>
      </root>
    </mxGraphModel>
  </diagram>
  <diagram id="HFDOVNtvCH3LCL-hzhOf" name="DatabaseRelationsDiagram">
    <mxGraphModel dx="2066" dy="1109" grid="1" gridSize="10" guides="1" tooltips="1" connect="1" arrows="1" fold="1" page="1" pageScale="1" pageWidth="850" pageHeight="1100" math="0" shadow="0">
      <root>
        <mxCell id="0" />
        <mxCell id="1" parent="0" />
        <mxCell id="Voll-DZlrVRl-V_TKwOc-5" value="" style="endArrow=open;endSize=12;startArrow=diamondThin;startSize=14;startFill=0;edgeStyle=orthogonalEdgeStyle;entryX=0.5;entryY=1;entryDx=0;entryDy=0;exitX=0.5;exitY=0;exitDx=0;exitDy=0;" parent="1" source="Voll-DZlrVRl-V_TKwOc-43" target="Voll-DZlrVRl-V_TKwOc-30" edge="1">
          <mxGeometry x="479.35999999999996" y="790" as="geometry">
            <mxPoint x="230" y="959.02" as="sourcePoint" />
            <mxPoint x="240" y="889.02" as="targetPoint" />
          </mxGeometry>
        </mxCell>
        <mxCell id="Voll-DZlrVRl-V_TKwOc-6" value="0..n" style="resizable=0;align=left;verticalAlign=top;labelBackgroundColor=#ffffff;fontSize=10;strokeColor=#003366;shadow=1;fillColor=#D4E1F5;fontColor=#003366" parent="Voll-DZlrVRl-V_TKwOc-5" connectable="0" vertex="1">
          <mxGeometry x="-1" relative="1" as="geometry">
            <mxPoint x="-30" y="-35" as="offset" />
          </mxGeometry>
        </mxCell>
        <mxCell id="Voll-DZlrVRl-V_TKwOc-7" value="1" style="resizable=0;align=right;verticalAlign=top;labelBackgroundColor=#ffffff;fontSize=10;strokeColor=#003366;shadow=1;fillColor=#D4E1F5;fontColor=#003366" parent="Voll-DZlrVRl-V_TKwOc-5" connectable="0" vertex="1">
          <mxGeometry x="1" relative="1" as="geometry">
            <mxPoint x="-11.080000000000421" as="offset" />
          </mxGeometry>
        </mxCell>
        <mxCell id="Voll-DZlrVRl-V_TKwOc-8" value="" style="endArrow=open;endSize=12;startArrow=diamondThin;startSize=14;startFill=0;edgeStyle=orthogonalEdgeStyle;rounded=0;exitX=0.5;exitY=1;exitDx=0;exitDy=0;entryX=0.75;entryY=0;entryDx=0;entryDy=0;endFill=0;" parent="1" source="Voll-DZlrVRl-V_TKwOc-32" target="Voll-DZlrVRl-V_TKwOc-31" edge="1">
          <mxGeometry x="419.35999999999996" y="820" as="geometry">
            <mxPoint x="471.0799999999999" y="688.04" as="sourcePoint" />
            <mxPoint x="370" y="779.02" as="targetPoint" />
            <Array as="points">
              <mxPoint x="480" y="769.02" />
            </Array>
          </mxGeometry>
        </mxCell>
        <mxCell id="Voll-DZlrVRl-V_TKwOc-9" value="0..n" style="resizable=0;align=left;verticalAlign=top;labelBackgroundColor=#ffffff;fontSize=10;strokeColor=#003366;shadow=1;fillColor=#D4E1F5;fontColor=#003366" parent="Voll-DZlrVRl-V_TKwOc-8" connectable="0" vertex="1">
          <mxGeometry x="-1" relative="1" as="geometry">
            <mxPoint x="10" y="8" as="offset" />
          </mxGeometry>
        </mxCell>
        <mxCell id="Voll-DZlrVRl-V_TKwOc-10" value="1" style="resizable=0;align=right;verticalAlign=top;labelBackgroundColor=#ffffff;fontSize=10;strokeColor=#003366;shadow=1;fillColor=#D4E1F5;fontColor=#003366" parent="Voll-DZlrVRl-V_TKwOc-8" connectable="0" vertex="1">
          <mxGeometry x="1" relative="1" as="geometry">
            <mxPoint x="20" y="-25" as="offset" />
          </mxGeometry>
        </mxCell>
        <mxCell id="Voll-DZlrVRl-V_TKwOc-14" value="" style="endArrow=open;endSize=12;startArrow=diamondThin;startSize=14;startFill=0;edgeStyle=orthogonalEdgeStyle;exitX=0;exitY=0.25;exitDx=0;exitDy=0;entryX=0.75;entryY=1;entryDx=0;entryDy=0;" parent="1" source="Voll-DZlrVRl-V_TKwOc-31" target="Voll-DZlrVRl-V_TKwOc-30" edge="1">
          <mxGeometry x="519.3599999999999" y="200" as="geometry">
            <mxPoint x="230" y="749.02" as="sourcePoint" />
            <mxPoint x="230" y="639.02" as="targetPoint" />
          </mxGeometry>
        </mxCell>
        <mxCell id="Voll-DZlrVRl-V_TKwOc-16" value="1" style="resizable=0;align=right;verticalAlign=top;labelBackgroundColor=#ffffff;fontSize=10;strokeColor=#003366;shadow=1;fillColor=#D4E1F5;fontColor=#003366" parent="Voll-DZlrVRl-V_TKwOc-14" connectable="0" vertex="1">
          <mxGeometry x="1" relative="1" as="geometry">
            <mxPoint x="20" as="offset" />
          </mxGeometry>
        </mxCell>
        <mxCell id="Voll-DZlrVRl-V_TKwOc-18" value="" style="endArrow=open;endSize=12;startArrow=diamondThin;startSize=14;startFill=0;edgeStyle=orthogonalEdgeStyle;entryX=1;entryY=0.5;entryDx=0;entryDy=0;exitX=0;exitY=0.5;exitDx=0;exitDy=0;" parent="1" source="Voll-DZlrVRl-V_TKwOc-44" target="Voll-DZlrVRl-V_TKwOc-43" edge="1">
          <mxGeometry x="479.35999999999996" y="790" as="geometry">
            <mxPoint x="239.99999999999994" y="1164.02" as="sourcePoint" />
            <mxPoint x="448.92" y="1069.02" as="targetPoint" />
          </mxGeometry>
        </mxCell>
        <mxCell id="Voll-DZlrVRl-V_TKwOc-19" value="0..n" style="resizable=0;align=left;verticalAlign=top;labelBackgroundColor=#ffffff;fontSize=10;strokeColor=#003366;shadow=1;fillColor=#D4E1F5;fontColor=#003366" parent="Voll-DZlrVRl-V_TKwOc-18" connectable="0" vertex="1">
          <mxGeometry x="-1" relative="1" as="geometry">
            <mxPoint x="20" y="-28" as="offset" />
          </mxGeometry>
        </mxCell>
        <mxCell id="Voll-DZlrVRl-V_TKwOc-23" value="0..n" style="resizable=0;align=left;verticalAlign=top;labelBackgroundColor=#ffffff;fontSize=10;strokeColor=#003366;shadow=1;fillColor=#D4E1F5;fontColor=#003366" parent="1" connectable="0" vertex="1">
          <mxGeometry x="320" y="759.0200000000002" as="geometry" />
        </mxCell>
        <mxCell id="Voll-DZlrVRl-V_TKwOc-29" value="1" style="resizable=0;align=right;verticalAlign=top;labelBackgroundColor=#ffffff;fontSize=10;strokeColor=#003366;shadow=1;fillColor=#D4E1F5;fontColor=#003366" parent="1" connectable="0" vertex="1">
          <mxGeometry x="344.9999999999996" y="979.0200009573044" as="geometry" />
        </mxCell>
        <mxCell id="Voll-DZlrVRl-V_TKwOc-30" value="&lt;div style=&quot;box-sizing:border-box;width:100%;background:#e4e4e4;padding:2px;&quot;&gt;Venues&lt;/div&gt;&lt;table style=&quot;width:100%;font-size:1em;&quot; cellpadding=&quot;2&quot; cellspacing=&quot;0&quot;&gt;&lt;tbody&gt;&lt;tr&gt;&lt;td&gt;PK&lt;/td&gt;&lt;td&gt;Id&lt;/td&gt;&lt;/tr&gt;&lt;tr&gt;&lt;td&gt;&lt;br&gt;&lt;/td&gt;&lt;td&gt;Name&lt;/td&gt;&lt;/tr&gt;&lt;tr&gt;&lt;td&gt;&lt;/td&gt;&lt;td&gt;Description&lt;br&gt;Address&lt;/td&gt;&lt;/tr&gt;&lt;/tbody&gt;&lt;/table&gt;" style="verticalAlign=top;align=left;overflow=fill;html=1;whiteSpace=wrap;" parent="1" vertex="1">
          <mxGeometry x="140" y="560" width="180" height="90" as="geometry" />
        </mxCell>
        <mxCell id="Voll-DZlrVRl-V_TKwOc-31" value="&lt;div style=&quot;box-sizing:border-box;width:100%;background:#e4e4e4;padding:2px;&quot;&gt;Manifests&lt;/div&gt;&lt;table style=&quot;width:100%;font-size:1em;&quot; cellpadding=&quot;2&quot; cellspacing=&quot;0&quot;&gt;&lt;tbody&gt;&lt;tr&gt;&lt;td&gt;PK&lt;/td&gt;&lt;td&gt;Id&lt;/td&gt;&lt;/tr&gt;&lt;tr&gt;&lt;td&gt;FK1&lt;/td&gt;&lt;td&gt;VenueId&lt;/td&gt;&lt;/tr&gt;&lt;tr&gt;&lt;td&gt;&lt;/td&gt;&lt;td&gt;&lt;br&gt;&lt;/td&gt;&lt;/tr&gt;&lt;/tbody&gt;&lt;/table&gt;" style="verticalAlign=top;align=left;overflow=fill;html=1;whiteSpace=wrap;" parent="1" vertex="1">
          <mxGeometry x="345" y="769.02" width="180" height="70" as="geometry" />
        </mxCell>
        <mxCell id="Voll-DZlrVRl-V_TKwOc-32" value="&lt;div style=&quot;box-sizing:border-box;width:100%;background:#e4e4e4;padding:2px;&quot;&gt;Events&lt;/div&gt;&lt;table style=&quot;width:100%;font-size:1em;&quot; cellpadding=&quot;2&quot; cellspacing=&quot;0&quot;&gt;&lt;tbody&gt;&lt;tr&gt;&lt;td&gt;PK&lt;/td&gt;&lt;td&gt;Id&lt;/td&gt;&lt;/tr&gt;&lt;tr&gt;&lt;td&gt;FK1&lt;/td&gt;&lt;td&gt;ManifestId&lt;/td&gt;&lt;/tr&gt;&lt;tr&gt;&lt;td&gt;&lt;/td&gt;&lt;td&gt;Name&lt;br&gt;Description&lt;br&gt;StartDate&lt;br&gt;EndDate&lt;/td&gt;&lt;/tr&gt;&lt;/tbody&gt;&lt;/table&gt;" style="verticalAlign=top;align=left;overflow=fill;html=1;whiteSpace=wrap;" parent="1" vertex="1">
          <mxGeometry x="390" y="545" width="180" height="120" as="geometry" />
        </mxCell>
        <mxCell id="Voll-DZlrVRl-V_TKwOc-33" value="&lt;div style=&quot;box-sizing:border-box;width:100%;background:#e4e4e4;padding:2px;&quot;&gt;Prices&lt;/div&gt;&lt;table style=&quot;width:100%;font-size:1em;&quot; cellpadding=&quot;2&quot; cellspacing=&quot;0&quot;&gt;&lt;tbody&gt;&lt;tr&gt;&lt;td&gt;PK&lt;/td&gt;&lt;td&gt;Id&lt;/td&gt;&lt;/tr&gt;&lt;tr&gt;&lt;td&gt;&lt;br&gt;&lt;/td&gt;&lt;td&gt;Type&lt;/td&gt;&lt;/tr&gt;&lt;tr&gt;&lt;td&gt;&lt;/td&gt;&lt;td&gt;Price&lt;/td&gt;&lt;/tr&gt;&lt;/tbody&gt;&lt;/table&gt;" style="verticalAlign=top;align=left;overflow=fill;html=1;whiteSpace=wrap;" parent="1" vertex="1">
          <mxGeometry x="1050" y="560" width="180" height="90" as="geometry" />
        </mxCell>
        <mxCell id="Voll-DZlrVRl-V_TKwOc-34" value="&lt;div style=&quot;box-sizing:border-box;width:100%;background:#e4e4e4;padding:2px;&quot;&gt;Users&lt;/div&gt;&lt;table style=&quot;width:100%;font-size:1em;&quot; cellpadding=&quot;2&quot; cellspacing=&quot;0&quot;&gt;&lt;tbody&gt;&lt;tr&gt;&lt;td&gt;PK&lt;/td&gt;&lt;td&gt;Id&lt;/td&gt;&lt;/tr&gt;&lt;tr&gt;&lt;td&gt;&lt;br&gt;&lt;/td&gt;&lt;td&gt;Name&lt;/td&gt;&lt;/tr&gt;&lt;tr&gt;&lt;td&gt;UNIQUE&lt;/td&gt;&lt;td&gt;Email&lt;/td&gt;&lt;/tr&gt;&lt;/tbody&gt;&lt;/table&gt;" style="verticalAlign=top;align=left;overflow=fill;html=1;whiteSpace=wrap;" parent="1" vertex="1">
          <mxGeometry x="400" y="80" width="180" height="90" as="geometry" />
        </mxCell>
        <mxCell id="Voll-DZlrVRl-V_TKwOc-35" value="&lt;div style=&quot;box-sizing:border-box;width:100%;background:#e4e4e4;padding:2px;&quot;&gt;Payments&lt;/div&gt;&lt;table style=&quot;width:100%;font-size:1em;&quot; cellpadding=&quot;2&quot; cellspacing=&quot;0&quot;&gt;&lt;tbody&gt;&lt;tr&gt;&lt;td&gt;PK&lt;/td&gt;&lt;td&gt;Id&lt;/td&gt;&lt;/tr&gt;&lt;tr&gt;&lt;td&gt;FK1&lt;br&gt;&lt;br&gt;&lt;/td&gt;&lt;td&gt;CartId&lt;br&gt;Status&lt;/td&gt;&lt;/tr&gt;&lt;/tbody&gt;&lt;/table&gt;" style="verticalAlign=top;align=left;overflow=fill;html=1;whiteSpace=wrap;" parent="1" vertex="1">
          <mxGeometry x="1010" y="85" width="160" height="80" as="geometry" />
        </mxCell>
        <mxCell id="Voll-DZlrVRl-V_TKwOc-36" value="&lt;div style=&quot;box-sizing:border-box;width:100%;background:#e4e4e4;padding:2px;&quot;&gt;Carts&lt;/div&gt;&lt;table style=&quot;width:100%;font-size:1em;&quot; cellpadding=&quot;2&quot; cellspacing=&quot;0&quot;&gt;&lt;tbody&gt;&lt;tr&gt;&lt;td&gt;PK&lt;/td&gt;&lt;td&gt;Id&lt;/td&gt;&lt;/tr&gt;&lt;tr&gt;&lt;td&gt;FK1&lt;/td&gt;&lt;td&gt;UserId&lt;/td&gt;&lt;/tr&gt;&lt;/tbody&gt;&lt;/table&gt;" style="verticalAlign=top;align=left;overflow=fill;html=1;whiteSpace=wrap;" parent="1" vertex="1">
          <mxGeometry x="720" y="90" width="160" height="70" as="geometry" />
        </mxCell>
        <mxCell id="Voll-DZlrVRl-V_TKwOc-37" value="" style="endArrow=open;endSize=12;startArrow=diamondThin;startSize=14;startFill=0;edgeStyle=orthogonalEdgeStyle;entryX=1;entryY=0.5;entryDx=0;entryDy=0;exitX=0;exitY=0.5;exitDx=0;exitDy=0;" parent="1" source="Voll-DZlrVRl-V_TKwOc-36" target="Voll-DZlrVRl-V_TKwOc-34" edge="1">
          <mxGeometry x="479.35999999999996" y="790" as="geometry">
            <mxPoint x="540" y="220" as="sourcePoint" />
            <mxPoint x="740" y="220" as="targetPoint" />
          </mxGeometry>
        </mxCell>
        <mxCell id="Voll-DZlrVRl-V_TKwOc-38" value="0..n" style="resizable=0;align=left;verticalAlign=top;labelBackgroundColor=#ffffff;fontSize=10;strokeColor=#003366;shadow=1;fillColor=#D4E1F5;fontColor=#003366" parent="Voll-DZlrVRl-V_TKwOc-37" connectable="0" vertex="1">
          <mxGeometry x="-1" relative="1" as="geometry">
            <mxPoint x="-30" y="-25" as="offset" />
          </mxGeometry>
        </mxCell>
        <mxCell id="Voll-DZlrVRl-V_TKwOc-39" value="1" style="resizable=0;align=right;verticalAlign=top;labelBackgroundColor=#ffffff;fontSize=10;strokeColor=#003366;shadow=1;fillColor=#D4E1F5;fontColor=#003366" parent="1" connectable="0" vertex="1">
          <mxGeometry x="599.9999999999997" y="100.00000095730442" as="geometry" />
        </mxCell>
        <mxCell id="Voll-DZlrVRl-V_TKwOc-40" value="" style="endArrow=open;endSize=12;startArrow=diamondThin;startSize=14;startFill=0;edgeStyle=orthogonalEdgeStyle;entryX=1;entryY=0.5;entryDx=0;entryDy=0;exitX=0;exitY=0.5;exitDx=0;exitDy=0;" parent="1" source="Voll-DZlrVRl-V_TKwOc-35" target="Voll-DZlrVRl-V_TKwOc-36" edge="1">
          <mxGeometry x="479.35999999999996" y="790" as="geometry">
            <mxPoint x="1100" y="210" as="sourcePoint" />
            <mxPoint x="900" y="210" as="targetPoint" />
          </mxGeometry>
        </mxCell>
        <mxCell id="Voll-DZlrVRl-V_TKwOc-41" value="0..n" style="resizable=0;align=left;verticalAlign=top;labelBackgroundColor=#ffffff;fontSize=10;strokeColor=#003366;shadow=1;fillColor=#D4E1F5;fontColor=#003366" parent="Voll-DZlrVRl-V_TKwOc-40" connectable="0" vertex="1">
          <mxGeometry x="-1" relative="1" as="geometry">
            <mxPoint x="-30" y="-25" as="offset" />
          </mxGeometry>
        </mxCell>
        <mxCell id="Voll-DZlrVRl-V_TKwOc-42" value="1" style="resizable=0;align=right;verticalAlign=top;labelBackgroundColor=#ffffff;fontSize=10;strokeColor=#003366;shadow=1;fillColor=#D4E1F5;fontColor=#003366" parent="1" connectable="0" vertex="1">
          <mxGeometry x="899.9999999999995" y="100.00000095730442" as="geometry" />
        </mxCell>
        <mxCell id="Voll-DZlrVRl-V_TKwOc-43" value="&lt;div style=&quot;box-sizing:border-box;width:100%;background:#e4e4e4;padding:2px;&quot;&gt;Sections&lt;/div&gt;&lt;table style=&quot;width:100%;font-size:1em;&quot; cellpadding=&quot;2&quot; cellspacing=&quot;0&quot;&gt;&lt;tbody&gt;&lt;tr&gt;&lt;td&gt;PK&lt;/td&gt;&lt;td&gt;Id&lt;/td&gt;&lt;/tr&gt;&lt;tr&gt;&lt;td&gt;FK1&lt;/td&gt;&lt;td&gt;VenueId&lt;/td&gt;&lt;/tr&gt;&lt;tr&gt;&lt;td&gt;&lt;br&gt;UNIQUE&lt;/td&gt;&lt;td&gt;Name&lt;br&gt;(VenueId, Name)&lt;/td&gt;&lt;/tr&gt;&lt;tr&gt;&lt;td&gt;&lt;br&gt;&lt;/td&gt;&lt;td&gt;&lt;br&gt;&lt;/td&gt;&lt;/tr&gt;&lt;tr&gt;&lt;td&gt;&lt;br&gt;&lt;/td&gt;&lt;td&gt;&lt;br&gt;&lt;/td&gt;&lt;/tr&gt;&lt;/tbody&gt;&lt;/table&gt;" style="verticalAlign=top;align=left;overflow=fill;html=1;whiteSpace=wrap;" parent="1" vertex="1">
          <mxGeometry x="140" y="957.39" width="180" height="90" as="geometry" />
        </mxCell>
        <mxCell id="Voll-DZlrVRl-V_TKwOc-44" value="&lt;div style=&quot;box-sizing:border-box;width:100%;background:#e4e4e4;padding:2px;&quot;&gt;Rows&lt;/div&gt;&lt;table style=&quot;width:100%;font-size:1em;&quot; cellpadding=&quot;2&quot; cellspacing=&quot;0&quot;&gt;&lt;tbody&gt;&lt;tr&gt;&lt;td&gt;PK&lt;/td&gt;&lt;td&gt;Id&lt;/td&gt;&lt;/tr&gt;&lt;tr&gt;&lt;td&gt;FK1&lt;/td&gt;&lt;td&gt;SectionId&lt;/td&gt;&lt;/tr&gt;&lt;tr&gt;&lt;td&gt;&lt;br&gt;UNIQUE&lt;/td&gt;&lt;td&gt;Number&lt;br&gt;(SectionId, Number)&lt;/td&gt;&lt;/tr&gt;&lt;tr&gt;&lt;td&gt;&lt;br&gt;&lt;/td&gt;&lt;td&gt;&lt;br&gt;&lt;/td&gt;&lt;/tr&gt;&lt;tr&gt;&lt;td&gt;&lt;br&gt;&lt;/td&gt;&lt;td&gt;&lt;br&gt;&lt;/td&gt;&lt;/tr&gt;&lt;tr&gt;&lt;td&gt;&lt;br&gt;&lt;/td&gt;&lt;td&gt;&lt;br&gt;&lt;/td&gt;&lt;/tr&gt;&lt;/tbody&gt;&lt;/table&gt;" style="verticalAlign=top;align=left;overflow=fill;html=1;whiteSpace=wrap;" parent="1" vertex="1">
          <mxGeometry x="420" y="957.39" width="180" height="90" as="geometry" />
        </mxCell>
        <mxCell id="Voll-DZlrVRl-V_TKwOc-45" value="0..n" style="resizable=0;align=left;verticalAlign=top;labelBackgroundColor=#ffffff;fontSize=10;strokeColor=#003366;shadow=1;fillColor=#D4E1F5;fontColor=#003366" parent="1" connectable="0" vertex="1">
          <mxGeometry x="390" y="979.02" as="geometry" />
        </mxCell>
        <mxCell id="Voll-DZlrVRl-V_TKwOc-46" value="&lt;div style=&quot;box-sizing:border-box;width:100%;background:#e4e4e4;padding:2px;&quot;&gt;Seats&lt;/div&gt;&lt;table style=&quot;width:100%;font-size:1em;&quot; cellpadding=&quot;2&quot; cellspacing=&quot;0&quot;&gt;&lt;tbody&gt;&lt;tr&gt;&lt;td&gt;PK&lt;/td&gt;&lt;td&gt;Id&lt;/td&gt;&lt;/tr&gt;&lt;tr&gt;&lt;td&gt;FK1&lt;/td&gt;&lt;td&gt;RowId&lt;/td&gt;&lt;/tr&gt;&lt;tr&gt;&lt;td&gt;&lt;/td&gt;&lt;td&gt;Number&lt;/td&gt;&lt;/tr&gt;&lt;tr&gt;&lt;td&gt;UNIQUE&lt;/td&gt;&lt;td&gt;(RowId, Number)&lt;/td&gt;&lt;/tr&gt;&lt;/tbody&gt;&lt;/table&gt;" style="verticalAlign=top;align=left;overflow=fill;html=1;whiteSpace=wrap;" parent="1" vertex="1">
          <mxGeometry x="710" y="955.76" width="180" height="93.26" as="geometry" />
        </mxCell>
        <mxCell id="Voll-DZlrVRl-V_TKwOc-47" value="" style="endArrow=open;endSize=12;startArrow=diamondThin;startSize=14;startFill=0;edgeStyle=orthogonalEdgeStyle;entryX=1;entryY=0.5;entryDx=0;entryDy=0;exitX=0;exitY=0.5;exitDx=0;exitDy=0;" parent="1" source="Voll-DZlrVRl-V_TKwOc-46" target="Voll-DZlrVRl-V_TKwOc-44" edge="1">
          <mxGeometry x="479.35999999999996" y="790" as="geometry">
            <mxPoint x="710" y="1001.02" as="sourcePoint" />
            <mxPoint x="610" y="1001.02" as="targetPoint" />
          </mxGeometry>
        </mxCell>
        <mxCell id="Voll-DZlrVRl-V_TKwOc-49" value="1" style="resizable=0;align=right;verticalAlign=top;labelBackgroundColor=#ffffff;fontSize=10;strokeColor=#003366;shadow=1;fillColor=#D4E1F5;fontColor=#003366" parent="1" connectable="0" vertex="1">
          <mxGeometry x="629.9999999999995" y="979.0200009573044" as="geometry" />
        </mxCell>
        <mxCell id="Voll-DZlrVRl-V_TKwOc-50" value="0..n" style="resizable=0;align=left;verticalAlign=top;labelBackgroundColor=#ffffff;fontSize=10;strokeColor=#003366;shadow=1;fillColor=#D4E1F5;fontColor=#003366" parent="1" connectable="0" vertex="1">
          <mxGeometry x="680" y="979.02" as="geometry" />
        </mxCell>
        <mxCell id="Voll-DZlrVRl-V_TKwOc-51" value="&lt;div style=&quot;box-sizing:border-box;width:100%;background:#e4e4e4;padding:2px;&quot;&gt;EventSeats&lt;/div&gt;&lt;table style=&quot;width:100%;font-size:1em;&quot; cellpadding=&quot;2&quot; cellspacing=&quot;0&quot;&gt;&lt;tbody&gt;&lt;tr&gt;&lt;td&gt;PK&lt;/td&gt;&lt;td&gt;Id&lt;/td&gt;&lt;/tr&gt;&lt;tr&gt;&lt;td&gt;FK1&lt;/td&gt;&lt;td&gt;EventId&lt;/td&gt;&lt;/tr&gt;&lt;tr&gt;&lt;td&gt;FK2&lt;/td&gt;&lt;td&gt;SeatId&lt;/td&gt;&lt;/tr&gt;&lt;tr&gt;&lt;td&gt;FK3&lt;br&gt;&lt;br&gt;&lt;/td&gt;&lt;td&gt;PriceId&lt;br&gt;Status&lt;/td&gt;&lt;/tr&gt;&lt;tr&gt;&lt;td&gt;UNIQUE&lt;/td&gt;&lt;td&gt;(EventId, SeatId)&lt;/td&gt;&lt;/tr&gt;&lt;/tbody&gt;&lt;/table&gt;" style="verticalAlign=top;align=left;overflow=fill;html=1;whiteSpace=wrap;" parent="1" vertex="1">
          <mxGeometry x="710" y="540" width="180" height="130" as="geometry" />
        </mxCell>
        <mxCell id="Voll-DZlrVRl-V_TKwOc-52" value="" style="endArrow=open;endSize=12;startArrow=diamondThin;startSize=14;startFill=0;edgeStyle=orthogonalEdgeStyle;entryX=0.5;entryY=0;entryDx=0;entryDy=0;exitX=0.5;exitY=1;exitDx=0;exitDy=0;" parent="1" source="Voll-DZlrVRl-V_TKwOc-51" target="Voll-DZlrVRl-V_TKwOc-46" edge="1">
          <mxGeometry x="479.35999999999996" y="790" as="geometry">
            <mxPoint x="600" y="799.02" as="sourcePoint" />
            <mxPoint x="800" y="935.7600000000002" as="targetPoint" />
          </mxGeometry>
        </mxCell>
        <mxCell id="Voll-DZlrVRl-V_TKwOc-53" value="0..n" style="resizable=0;align=left;verticalAlign=top;labelBackgroundColor=#ffffff;fontSize=10;strokeColor=#003366;shadow=1;fillColor=#D4E1F5;fontColor=#003366" parent="Voll-DZlrVRl-V_TKwOc-52" connectable="0" vertex="1">
          <mxGeometry x="-1" relative="1" as="geometry">
            <mxPoint x="-30" as="offset" />
          </mxGeometry>
        </mxCell>
        <mxCell id="Voll-DZlrVRl-V_TKwOc-54" value="1" style="resizable=0;align=right;verticalAlign=top;labelBackgroundColor=#ffffff;fontSize=10;strokeColor=#003366;shadow=1;fillColor=#D4E1F5;fontColor=#003366" parent="Voll-DZlrVRl-V_TKwOc-52" connectable="0" vertex="1">
          <mxGeometry x="1" relative="1" as="geometry">
            <mxPoint x="-10" y="-27" as="offset" />
          </mxGeometry>
        </mxCell>
        <mxCell id="Voll-DZlrVRl-V_TKwOc-55" value="" style="endArrow=open;endSize=12;startArrow=diamondThin;startSize=14;startFill=0;edgeStyle=orthogonalEdgeStyle;entryX=0;entryY=0.5;entryDx=0;entryDy=0;exitX=1;exitY=0.5;exitDx=0;exitDy=0;" parent="1" source="Voll-DZlrVRl-V_TKwOc-51" target="Voll-DZlrVRl-V_TKwOc-33" edge="1">
          <mxGeometry x="479.35999999999996" y="790" as="geometry">
            <mxPoint x="970" y="560" as="sourcePoint" />
            <mxPoint x="970" y="627" as="targetPoint" />
          </mxGeometry>
        </mxCell>
        <mxCell id="Voll-DZlrVRl-V_TKwOc-56" value="0..n" style="resizable=0;align=left;verticalAlign=top;labelBackgroundColor=#ffffff;fontSize=10;strokeColor=#003366;shadow=1;fillColor=#D4E1F5;fontColor=#003366" parent="Voll-DZlrVRl-V_TKwOc-55" connectable="0" vertex="1">
          <mxGeometry x="-1" relative="1" as="geometry">
            <mxPoint x="10" y="-25" as="offset" />
          </mxGeometry>
        </mxCell>
        <mxCell id="Voll-DZlrVRl-V_TKwOc-57" value="1" style="resizable=0;align=right;verticalAlign=top;labelBackgroundColor=#ffffff;fontSize=10;strokeColor=#003366;shadow=1;fillColor=#D4E1F5;fontColor=#003366" parent="Voll-DZlrVRl-V_TKwOc-55" connectable="0" vertex="1">
          <mxGeometry x="1" relative="1" as="geometry">
            <mxPoint x="-10" y="-27" as="offset" />
          </mxGeometry>
        </mxCell>
        <mxCell id="Voll-DZlrVRl-V_TKwOc-58" value="" style="endArrow=open;endSize=12;startArrow=diamondThin;startSize=14;startFill=0;edgeStyle=orthogonalEdgeStyle;rounded=0;exitX=0;exitY=0.5;exitDx=0;exitDy=0;entryX=1;entryY=0.5;entryDx=0;entryDy=0;endFill=0;" parent="1" source="Voll-DZlrVRl-V_TKwOc-51" target="Voll-DZlrVRl-V_TKwOc-32" edge="1">
          <mxGeometry x="419.35999999999996" y="820" as="geometry">
            <mxPoint x="629.52" y="490" as="sourcePoint" />
            <mxPoint x="629.52" y="599" as="targetPoint" />
            <Array as="points">
              <mxPoint x="690" y="605" />
              <mxPoint x="690" y="605" />
            </Array>
          </mxGeometry>
        </mxCell>
        <mxCell id="Voll-DZlrVRl-V_TKwOc-59" value="0..n" style="resizable=0;align=left;verticalAlign=top;labelBackgroundColor=#ffffff;fontSize=10;strokeColor=#003366;shadow=1;fillColor=#D4E1F5;fontColor=#003366" parent="Voll-DZlrVRl-V_TKwOc-58" connectable="0" vertex="1">
          <mxGeometry x="-1" relative="1" as="geometry">
            <mxPoint x="-35" y="-25" as="offset" />
          </mxGeometry>
        </mxCell>
        <mxCell id="Voll-DZlrVRl-V_TKwOc-60" value="1" style="resizable=0;align=right;verticalAlign=top;labelBackgroundColor=#ffffff;fontSize=10;strokeColor=#003366;shadow=1;fillColor=#D4E1F5;fontColor=#003366" parent="Voll-DZlrVRl-V_TKwOc-58" connectable="0" vertex="1">
          <mxGeometry x="1" relative="1" as="geometry">
            <mxPoint x="20" y="-25" as="offset" />
          </mxGeometry>
        </mxCell>
        <mxCell id="Voll-DZlrVRl-V_TKwOc-61" value="&lt;div style=&quot;box-sizing:border-box;width:100%;background:#e4e4e4;padding:2px;&quot;&gt;CartItems&lt;/div&gt;&lt;table style=&quot;width:100%;font-size:1em;&quot; cellpadding=&quot;2&quot; cellspacing=&quot;0&quot;&gt;&lt;tbody&gt;&lt;tr&gt;&lt;td&gt;PK&lt;/td&gt;&lt;td&gt;Id&lt;/td&gt;&lt;/tr&gt;&lt;tr&gt;&lt;td&gt;FK1&lt;br&gt;FK2&lt;br&gt;FK3&lt;br&gt;UNIQUE&lt;/td&gt;&lt;td&gt;CartId&lt;br&gt;EventSeatId&lt;br&gt;PriceId&lt;br&gt;(CartId, EventSeatId)&lt;/td&gt;&lt;/tr&gt;&lt;/tbody&gt;&lt;/table&gt;" style="verticalAlign=top;align=left;overflow=fill;html=1;whiteSpace=wrap;" parent="1" vertex="1">
          <mxGeometry x="712.5" y="270" width="175" height="110" as="geometry" />
        </mxCell>
        <mxCell id="Voll-DZlrVRl-V_TKwOc-62" value="" style="endArrow=open;endSize=12;startArrow=diamondThin;startSize=14;startFill=0;edgeStyle=orthogonalEdgeStyle;rounded=0;exitX=0.5;exitY=0;exitDx=0;exitDy=0;entryX=0.5;entryY=1;entryDx=0;entryDy=0;endFill=0;" parent="1" source="Voll-DZlrVRl-V_TKwOc-61" target="Voll-DZlrVRl-V_TKwOc-36" edge="1">
          <mxGeometry x="419.35999999999996" y="820" as="geometry">
            <mxPoint x="675" y="370" as="sourcePoint" />
            <mxPoint x="535" y="370" as="targetPoint" />
            <Array as="points">
              <mxPoint x="800" y="260" />
              <mxPoint x="800" y="260" />
            </Array>
          </mxGeometry>
        </mxCell>
        <mxCell id="Voll-DZlrVRl-V_TKwOc-63" value="0..n" style="resizable=0;align=left;verticalAlign=top;labelBackgroundColor=#ffffff;fontSize=10;strokeColor=#003366;shadow=1;fillColor=#D4E1F5;fontColor=#003366" parent="Voll-DZlrVRl-V_TKwOc-62" connectable="0" vertex="1">
          <mxGeometry x="-1" relative="1" as="geometry">
            <mxPoint x="-35" y="-30" as="offset" />
          </mxGeometry>
        </mxCell>
        <mxCell id="Voll-DZlrVRl-V_TKwOc-64" value="1" style="resizable=0;align=right;verticalAlign=top;labelBackgroundColor=#ffffff;fontSize=10;strokeColor=#003366;shadow=1;fillColor=#D4E1F5;fontColor=#003366" parent="Voll-DZlrVRl-V_TKwOc-62" connectable="0" vertex="1">
          <mxGeometry x="1" relative="1" as="geometry">
            <mxPoint x="-15" y="10" as="offset" />
          </mxGeometry>
        </mxCell>
        <mxCell id="Voll-DZlrVRl-V_TKwOc-65" value="" style="endArrow=open;endSize=12;startArrow=diamondThin;startSize=14;startFill=0;edgeStyle=orthogonalEdgeStyle;rounded=0;exitX=0.5;exitY=0;exitDx=0;exitDy=0;entryX=0.5;entryY=1;entryDx=0;entryDy=0;endFill=0;" parent="1" target="Voll-DZlrVRl-V_TKwOc-61" edge="1">
          <mxGeometry x="419.35999999999996" y="820" as="geometry">
            <mxPoint x="799.58" y="540" as="sourcePoint" />
            <mxPoint x="799.58" y="410" as="targetPoint" />
            <Array as="points" />
          </mxGeometry>
        </mxCell>
        <mxCell id="Voll-DZlrVRl-V_TKwOc-66" value="0..n" style="resizable=0;align=left;verticalAlign=top;labelBackgroundColor=#ffffff;fontSize=10;strokeColor=#003366;shadow=1;fillColor=#D4E1F5;fontColor=#003366" parent="Voll-DZlrVRl-V_TKwOc-65" connectable="0" vertex="1">
          <mxGeometry x="-1" relative="1" as="geometry">
            <mxPoint x="-35" y="-30" as="offset" />
          </mxGeometry>
        </mxCell>
        <mxCell id="Voll-DZlrVRl-V_TKwOc-67" value="1" style="resizable=0;align=right;verticalAlign=top;labelBackgroundColor=#ffffff;fontSize=10;strokeColor=#003366;shadow=1;fillColor=#D4E1F5;fontColor=#003366" parent="Voll-DZlrVRl-V_TKwOc-65" connectable="0" vertex="1">
          <mxGeometry x="1" relative="1" as="geometry">
            <mxPoint x="-15" y="10" as="offset" />
          </mxGeometry>
        </mxCell>
        <mxCell id="GLqml2sJmSGmYDN62JUc-1" value="" style="endArrow=open;endSize=12;startArrow=diamondThin;startSize=14;startFill=0;edgeStyle=orthogonalEdgeStyle;rounded=0;exitX=1;exitY=0.5;exitDx=0;exitDy=0;entryX=0.5;entryY=0;entryDx=0;entryDy=0;endFill=0;" edge="1" parent="1" source="Voll-DZlrVRl-V_TKwOc-61" target="Voll-DZlrVRl-V_TKwOc-33">
          <mxGeometry x="419.35999999999996" y="820" as="geometry">
            <mxPoint x="1070" y="480" as="sourcePoint" />
            <mxPoint x="1070.42" y="320" as="targetPoint" />
            <Array as="points" />
          </mxGeometry>
        </mxCell>
        <mxCell id="GLqml2sJmSGmYDN62JUc-2" value="0..n" style="resizable=0;align=left;verticalAlign=top;labelBackgroundColor=#ffffff;fontSize=10;strokeColor=#003366;shadow=1;fillColor=#D4E1F5;fontColor=#003366" connectable="0" vertex="1" parent="GLqml2sJmSGmYDN62JUc-1">
          <mxGeometry x="-1" relative="1" as="geometry">
            <mxPoint x="13" y="-25" as="offset" />
          </mxGeometry>
        </mxCell>
        <mxCell id="GLqml2sJmSGmYDN62JUc-3" value="1" style="resizable=0;align=right;verticalAlign=top;labelBackgroundColor=#ffffff;fontSize=10;strokeColor=#003366;shadow=1;fillColor=#D4E1F5;fontColor=#003366" connectable="0" vertex="1" parent="GLqml2sJmSGmYDN62JUc-1">
          <mxGeometry x="1" relative="1" as="geometry">
            <mxPoint x="20" y="-30" as="offset" />
          </mxGeometry>
        </mxCell>
      </root>
    </mxGraphModel>
  </diagram>
</mxfile>
